<svg width="65" height="89" viewBox="0 0 65 89" fill="none" xmlns="http://www.w3.org/2000/svg">
<path d="M36.07 81.24L30.41 78C30.3 77.9547 30.2084 77.8737 30.15 77.77L29.1 75.94L32 74.27L35.93 81.06C35.9605 81.131 36.0087 81.193 36.07 81.24Z" fill="#E0E0E0"/>
<path d="M0.55003 82.3601C0.602332 83.3137 0.878566 84.2416 1.35634 85.0686C1.83412 85.8956 2.5 86.5984 3.30003 87.1201L3.72003 87.3701C4.49113 87.7556 5.33447 87.9752 6.19566 88.0148C7.05685 88.0545 7.91679 87.9132 8.72003 87.6001C7.43003 88.0801 6.45003 87.3501 6.45003 85.7801V40.0601C6.48103 39.1064 6.7565 38.1767 7.25003 37.3601L1.33003 33.9401C0.840558 34.7585 0.565403 35.6871 0.530029 36.6401L0.55003 82.3601Z" fill="#E0E0E0"/>
<path d="M64.64 5.63006C64.33 4.46007 63.27 4.09007 61.99 4.82007L9.20003 35.3001C8.39939 35.7946 7.73577 36.4823 7.27003 37.3001C6.78054 38.1221 6.50545 39.054 6.47003 40.0101V85.7301C6.47003 87.2701 7.40003 88.0001 8.64003 87.5801H8.74003C8.90853 87.5183 9.06955 87.4378 9.22003 87.3401L32 74.2601L35.93 81.0601C35.9829 81.1597 36.0632 81.2421 36.1614 81.2974C36.2596 81.3528 36.3717 81.3789 36.4842 81.3726C36.5968 81.3663 36.7052 81.3278 36.7967 81.2618C36.8881 81.1958 36.9586 81.105 37 81.0001L41.15 69.0001L62.29 56.7101C64.76 55.3201 64.78 53.9001 64.78 52.1401V6.40007C64.7622 6.13899 64.7153 5.88071 64.64 5.63006V5.63006Z" fill="#FAFAFA"/>
<path d="M63.22 5.24006C63.35 5.24006 63.71 5.24006 63.86 5.81006C63.9019 6.00408 63.9253 6.20163 63.93 6.40006V52.1201C63.93 53.8101 63.93 54.8201 61.84 56.0001L40.7 68.2801L40.44 68.4301L40.34 68.7101L36.34 80.2501L32.65 73.8601L32.25 73.1701L31.56 73.5701L8.81003 86.6801C8.70516 86.7434 8.5947 86.7969 8.48003 86.8401H8.39003C8.26929 86.9136 8.13766 86.9676 8.00003 87.0001C7.38003 87.0001 7.29003 86.2601 7.29003 85.8301V40.0601C7.32373 39.24 7.56455 38.4419 7.99003 37.7401C8.36773 37.031 8.92234 36.4316 9.60003 36.0001L62.39 5.51006C62.6414 5.3555 62.9259 5.26295 63.22 5.24006V5.24006ZM63.22 4.44006C62.7837 4.45625 62.3594 4.58733 61.99 4.82006L9.20003 35.3001C8.39939 35.7946 7.73577 36.4823 7.27003 37.3001C6.78054 38.1221 6.50545 39.054 6.47003 40.0101V85.7301C6.47003 86.9801 7.08003 87.7301 7.98003 87.7301C8.20522 87.7275 8.42835 87.6869 8.64003 87.6101H8.74003C8.90853 87.5483 9.06955 87.4678 9.22003 87.3701L32 74.2601L35.93 81.0601C35.9791 81.1493 36.0516 81.2235 36.1397 81.2746C36.2278 81.3257 36.3282 81.3518 36.43 81.3501C36.5493 81.3563 36.6676 81.3261 36.7694 81.2636C36.8712 81.2011 36.9516 81.1092 37 81.0001L41.15 69.0001L62.29 56.7101C64.76 55.3201 64.78 53.9001 64.78 52.1401V6.40006C64.7786 6.14086 64.7484 5.88261 64.69 5.63006C64.6294 5.29719 64.4542 4.99602 64.1949 4.77869C63.9355 4.56137 63.6084 4.44158 63.27 4.44006H63.22Z" fill="#E0E0E0"/>
<path d="M64.64 5.63007C64.32 4.46007 63.26 4.09007 61.99 4.82007L9.21004 35.3101C8.40085 35.7939 7.73479 36.4842 7.28004 37.3101L1.36005 34.0001C1.82137 33.1757 2.49014 32.4863 3.30005 32.0001L56.07 1.51007C56.9215 1.08103 57.8616 0.857544 58.815 0.857544C59.7685 0.857544 60.7086 1.08103 61.56 1.51007L61.99 1.76007C62.669 2.19412 63.2536 2.76049 63.7089 3.42539C64.1642 4.09029 64.4809 4.8401 64.64 5.63007Z" fill="#F5F5F5"/>
<path d="M35.6 33.31C29.7 36.72 24.93 45 24.93 51.8C24.93 58.6 29.7 61.37 35.6 58C41.5 54.63 46.27 46.32 46.27 39.52C46.27 32.72 41.49 29.91 35.6 33.31ZM41.18 43.31L33.18 52.83C32.4 53.76 31.77 53.53 31.77 52.32V43.39C31.7669 43.1057 31.8221 42.8237 31.9322 42.5616C32.0424 42.2994 32.2051 42.0626 32.4103 41.8658C32.6155 41.669 32.859 41.5164 33.1255 41.4173C33.3921 41.3183 33.6761 41.275 33.96 41.29L40.36 41.54C41.61 41.58 42 42.38 41.18 43.3V43.31ZM58.35 13.94C57.9837 13.7575 57.5749 13.677 57.1667 13.7069C56.7585 13.7368 56.3659 13.8761 56.03 14.11L14.6 38C13.791 38.5177 13.118 39.222 12.6378 40.0538C12.1575 40.8856 11.8839 41.8205 11.84 42.78V74.57C11.8037 74.9761 11.8774 75.3845 12.0533 75.7522C12.2293 76.12 12.501 76.4336 12.84 76.66C13.1239 76.8196 13.4444 76.9024 13.77 76.9C14.2609 76.885 14.7396 76.7438 15.16 76.49L56.59 52.57C57.3991 52.0524 58.072 51.348 58.5523 50.5163C59.0326 49.6845 59.3062 48.7495 59.35 47.79V16C59.3817 15.5974 59.3057 15.1935 59.13 14.8298C58.9543 14.4661 58.6851 14.1556 58.35 13.93V13.94ZM58.21 47.82C58.1585 48.578 57.9321 49.3136 57.5487 49.9694C57.1653 50.6252 56.6352 51.1834 56 51.6L14.6 75.52C14.4335 75.6452 14.2381 75.7264 14.0318 75.7562C13.8256 75.7859 13.6152 75.7631 13.42 75.69C13.2593 75.5592 13.1345 75.3895 13.0576 75.197C12.9806 75.0046 12.9539 74.7957 12.98 74.59V42.8C13.0263 42.0404 13.2482 41.3019 13.6282 40.6425C14.0082 39.9831 14.536 39.4209 15.17 39L56.6 15.09C56.8471 14.9357 57.1292 14.8463 57.42 14.83C57.5427 14.8279 57.6636 14.859 57.77 14.92C57.9308 15.0509 58.0555 15.2206 58.1325 15.413C58.2095 15.6055 58.2362 15.8144 58.21 16.02V47.82Z" fill="#0082F4"/>
<path opacity="0.3" d="M35.6 33.31C29.7 36.72 24.93 45 24.93 51.8C24.93 58.6 29.7 61.37 35.6 58C41.5 54.63 46.27 46.32 46.27 39.52C46.27 32.72 41.49 29.91 35.6 33.31ZM41.18 43.31L33.18 52.83C32.4 53.76 31.77 53.53 31.77 52.32V43.39C31.7669 43.1057 31.8221 42.8237 31.9322 42.5616C32.0424 42.2994 32.2051 42.0626 32.4103 41.8658C32.6155 41.669 32.859 41.5164 33.1255 41.4173C33.3921 41.3183 33.6761 41.275 33.96 41.29L40.36 41.54C41.61 41.58 42 42.38 41.18 43.3V43.31ZM58.35 13.94C57.9837 13.7575 57.5749 13.677 57.1667 13.7069C56.7585 13.7368 56.3659 13.8761 56.03 14.11L14.6 38C13.791 38.5177 13.118 39.222 12.6378 40.0538C12.1575 40.8856 11.8839 41.8205 11.84 42.78V74.57C11.8037 74.9761 11.8774 75.3845 12.0533 75.7522C12.2293 76.12 12.501 76.4336 12.84 76.66C13.1239 76.8196 13.4444 76.9024 13.77 76.9C14.2609 76.885 14.7396 76.7438 15.16 76.49L56.59 52.57C57.3991 52.0524 58.072 51.348 58.5523 50.5163C59.0326 49.6845 59.3062 48.7495 59.35 47.79V16C59.3817 15.5974 59.3057 15.1935 59.13 14.8298C58.9543 14.4661 58.6851 14.1556 58.35 13.93V13.94ZM58.21 47.82C58.1585 48.578 57.9321 49.3136 57.5487 49.9694C57.1653 50.6252 56.6352 51.1834 56 51.6L14.6 75.52C14.4335 75.6452 14.2381 75.7264 14.0318 75.7562C13.8256 75.7859 13.6152 75.7631 13.42 75.69C13.2593 75.5592 13.1345 75.3895 13.0576 75.197C12.9806 75.0046 12.9539 74.7957 12.98 74.59V42.8C13.0263 42.0404 13.2482 41.3019 13.6282 40.6425C14.0082 39.9831 14.536 39.4209 15.17 39L56.6 15.09C56.8471 14.9357 57.1292 14.8463 57.42 14.83C57.5427 14.8279 57.6636 14.859 57.77 14.92C57.9308 15.0509 58.0555 15.2206 58.1325 15.413C58.2095 15.6055 58.2362 15.8144 58.21 16.02V47.82Z" fill="white"/>
</svg>
