<svg width="66" height="88" viewBox="0 0 66 88" fill="none" xmlns="http://www.w3.org/2000/svg">
<path d="M36.43 80.76L30.77 77.5C30.66 77.4547 30.5684 77.3737 30.51 77.27L29.51 75.44L32.37 73.79L36.3 80.58C36.3299 80.6487 36.3742 80.7101 36.43 80.76V80.76Z" fill="#E0E0E0"/>
<path d="M0.910019 81.88C0.962321 82.8336 1.23855 83.7615 1.71632 84.5885C2.1941 85.4155 2.85999 86.1183 3.66002 86.64L4.08002 86.88C4.85035 87.2679 5.69387 87.4889 6.55547 87.5285C7.41706 87.5682 8.27732 87.4255 9.08002 87.11C7.79002 87.6 6.81001 86.86 6.81001 85.3V39.58C6.84415 38.6237 7.11933 37.6915 7.61002 36.87L1.70001 33.46C1.20339 34.2758 0.924489 35.2055 0.890015 36.16L0.910019 81.88Z" fill="#E0E0E0"/>
<path d="M65 5.14996C64.69 3.97996 63.63 3.60996 62.35 4.33996L9.56001 34.82C8.76029 35.3124 8.09945 36.0008 7.64001 36.82C7.1434 37.6395 6.86457 38.5723 6.83002 39.53V85.3C6.83002 86.84 7.76002 87.57 9.00002 87.15C9.0331 87.1558 9.06694 87.1558 9.10002 87.15C9.26672 87.0841 9.42733 87.0038 9.58002 86.91L32.32 73.81L36.25 80.61C36.3081 80.7052 36.3919 80.7821 36.4919 80.8316C36.5918 80.8812 36.7038 80.9014 36.8148 80.8898C36.9257 80.8783 37.0312 80.8356 37.1188 80.7666C37.2065 80.6976 37.2728 80.6051 37.31 80.5L41.46 68.5L62.6 56.21C65.08 54.81 65.09 53.4 65.09 51.64V5.91996C65.0891 5.66073 65.0589 5.40242 65 5.14996Z" fill="#FAFAFA"/>
<path d="M63.58 4.75993C63.72 4.75993 64.07 4.75993 64.22 5.32993C64.2668 5.5231 64.2903 5.72118 64.29 5.91993V51.6399C64.29 53.3199 64.29 54.3399 62.2 55.5199L41.06 67.7999L40.8 67.9499L40.7 68.2299L36.7 79.7699L33 73.3799L32.6 72.6899L31.9 73.0899L9.17001 86.1999C9.06515 86.2633 8.95468 86.3168 8.84001 86.3599H8.75002C8.61795 86.405 8.47953 86.4286 8.34001 86.4299C7.72001 86.4299 7.63002 85.6999 7.63002 85.2699V39.5799C7.66277 38.7583 7.90734 37.9591 8.34001 37.2599C8.73055 36.5413 9.30298 35.9378 10 35.5099L62.75 4.99993C63.0014 4.84537 63.2859 4.75282 63.58 4.72993V4.75993ZM63.58 3.92993C63.144 3.94751 62.72 4.07849 62.35 4.30993L9.56001 34.8199C8.76029 35.3124 8.09945 36.0008 7.64001 36.8199C7.1434 37.6394 6.86457 38.5723 6.83002 39.5299V85.2999C6.83002 86.5499 7.44001 87.2999 8.34001 87.2999C8.56463 87.3006 8.78775 87.2634 9.00002 87.1899C9.0331 87.1957 9.06694 87.1957 9.10002 87.1899C9.26672 87.1241 9.42733 87.0438 9.58002 86.9499L32.32 73.8499L36.25 80.6499C36.3053 80.7489 36.3884 80.8296 36.4891 80.8818C36.5897 80.9341 36.7034 80.9557 36.8162 80.944C36.929 80.9323 37.0359 80.8878 37.1237 80.816C37.2114 80.7441 37.2762 80.6482 37.31 80.5399L41.46 68.5399L62.6 56.2099C65.08 54.8099 65.09 53.3999 65.09 51.6399V5.91993C65.0891 5.66069 65.0589 5.40239 65 5.14993C64.9312 4.82443 64.7525 4.5325 64.494 4.32311C64.2354 4.11372 63.9127 3.99962 63.58 3.99993V3.92993Z" fill="#E0E0E0"/>
<path d="M65 5.14999C64.68 3.97999 63.62 3.60999 62.35 4.33999L9.57004 34.83C8.75644 35.3303 8.09037 36.0377 7.64003 36.88L1.72003 33.46C2.17997 32.6214 2.84809 31.9154 3.66003 31.41L56.43 0.929993C57.2815 0.500953 58.2216 0.277466 59.175 0.277466C60.1285 0.277466 61.0686 0.500953 61.92 0.929993L62.35 1.17999C63.0399 1.62521 63.631 2.20726 64.0868 2.89013C64.5426 3.573 64.8534 4.34216 65 5.14999V5.14999Z" fill="#F5F5F5"/>
<path d="M12 47.84C11.9701 47.8419 11.9404 47.8342 11.9152 47.818C11.89 47.8018 11.8707 47.778 11.86 47.75C11.8479 47.7298 11.8401 47.7074 11.837 47.6841C11.834 47.6608 11.8359 47.6372 11.8424 47.6146C11.849 47.5921 11.8602 47.5711 11.8753 47.5531C11.8903 47.5351 11.909 47.5204 11.93 47.51L12.38 47.24C12.398 47.2278 12.4183 47.2196 12.4397 47.216C12.461 47.2125 12.4829 47.2136 12.5038 47.2193C12.5248 47.225 12.5442 47.2351 12.5608 47.2491C12.5774 47.263 12.5908 47.2804 12.6 47.3C12.6123 47.3208 12.6203 47.344 12.6234 47.3681C12.6266 47.3921 12.6248 47.4165 12.6183 47.4399C12.6117 47.4632 12.6006 47.485 12.5854 47.5039C12.5702 47.5228 12.5514 47.5385 12.53 47.55L12.08 47.82L12 47.84Z" fill="#E0E0E0"/>
<path d="M13.36 47.05C13.3314 47.0466 13.3039 47.0367 13.2796 47.0211C13.2554 47.0055 13.235 46.9846 13.22 46.96C13.2 46.9168 13.1961 46.8679 13.2089 46.8221C13.2218 46.7762 13.2505 46.7365 13.29 46.71L14.18 46.18C14.1994 46.168 14.221 46.1603 14.2436 46.1573C14.2662 46.1544 14.2891 46.1563 14.3109 46.1629C14.3326 46.1695 14.3527 46.1807 14.3698 46.1957C14.3869 46.2108 14.4006 46.2292 14.41 46.25C14.4294 46.2917 14.4329 46.339 14.4201 46.3831C14.4072 46.4272 14.3787 46.4652 14.34 46.49L13.45 47.02C13.4237 47.0388 13.3924 47.0493 13.36 47.05V47.05ZM15.13 46C15.1007 45.9993 15.0721 45.9905 15.0474 45.9746C15.0227 45.9587 15.0029 45.9364 14.99 45.91C14.9691 45.8675 14.9658 45.8185 14.9807 45.7735C14.9957 45.7286 15.0278 45.6914 15.07 45.67L15.95 45.14C15.9687 45.1276 15.9898 45.1194 16.012 45.1157C16.0341 45.1121 16.0567 45.1131 16.0784 45.1188C16.1001 45.1245 16.1203 45.1346 16.1378 45.1486C16.1553 45.1626 16.1697 45.1801 16.18 45.2C16.2 45.2431 16.2039 45.292 16.1911 45.3379C16.1783 45.3837 16.1495 45.4234 16.11 45.45L15.22 45.98L15.13 46ZM16.91 44.94C16.8804 44.9405 16.8513 44.9322 16.8264 44.9162C16.8015 44.9001 16.7819 44.8771 16.77 44.85C16.7483 44.8087 16.7435 44.7606 16.7566 44.7158C16.7696 44.6711 16.7995 44.6331 16.84 44.61L17.72 44.08C17.7394 44.068 17.761 44.0603 17.7836 44.0573C17.8062 44.0544 17.8291 44.0563 17.8509 44.0629C17.8726 44.0695 17.8927 44.0807 17.9098 44.0957C17.9269 44.1108 17.9406 44.1292 17.95 44.15C17.9717 44.1912 17.9765 44.2393 17.9635 44.2841C17.9504 44.3289 17.9205 44.3668 17.88 44.39L16.99 44.92C16.9788 44.9286 16.9654 44.934 16.9514 44.9358C16.9373 44.9375 16.9231 44.9355 16.91 44.93V44.94ZM18.68 43.89C18.6504 43.8905 18.6213 43.8822 18.5964 43.8662C18.5715 43.8501 18.5519 43.8271 18.54 43.8C18.52 43.7568 18.5161 43.7079 18.529 43.6621C18.5418 43.6162 18.5705 43.5765 18.61 43.55L19.5 43.03C19.5386 43.0079 19.5843 43.0019 19.6272 43.0131C19.6702 43.0243 19.7071 43.0519 19.73 43.09C19.7514 43.1339 19.755 43.1844 19.7401 43.231C19.7252 43.2776 19.693 43.3166 19.65 43.34L18.77 43.87L18.68 43.89ZM20.45 42.83C20.4207 42.8293 20.3921 42.8205 20.3674 42.8046C20.3427 42.7887 20.3229 42.7664 20.31 42.74C20.2907 42.6983 20.2871 42.651 20.3 42.6068C20.3129 42.5627 20.3413 42.5247 20.38 42.5L21.27 41.97C21.2894 41.958 21.311 41.9503 21.3336 41.9473C21.3562 41.9444 21.3791 41.9463 21.4009 41.9529C21.4226 41.9595 21.4427 41.9707 21.4598 41.9857C21.4769 42.0008 21.4906 42.0192 21.5 42.04C21.5194 42.0817 21.5229 42.129 21.5101 42.1731C21.4972 42.2172 21.4687 42.2552 21.43 42.28L20.54 42.81C20.5118 42.8225 20.4803 42.826 20.45 42.82V42.83ZM22.23 41.83C22.2007 41.8293 22.1721 41.8205 22.1474 41.8046C22.1227 41.7887 22.1029 41.7664 22.09 41.74C22.0777 41.7191 22.0697 41.6959 22.0666 41.6719C22.0635 41.6478 22.0652 41.6234 22.0718 41.6001C22.0783 41.5767 22.0895 41.5549 22.1047 41.536C22.1198 41.5171 22.1387 41.5014 22.16 41.49L23.04 40.97C23.0587 40.9576 23.0798 40.9494 23.102 40.9458C23.1241 40.9421 23.1467 40.9431 23.1684 40.9488C23.1901 40.9545 23.2103 40.9646 23.2278 40.9786C23.2453 40.9926 23.2597 41.0101 23.27 41.03C23.2922 41.0727 23.2974 41.1224 23.2844 41.1688C23.2714 41.2152 23.2412 41.2549 23.2 41.28L22.31 41.8C22.2954 41.8006 22.2807 41.7982 22.267 41.793C22.2533 41.7879 22.2407 41.78 22.23 41.77V41.83ZM24 40.71C23.9704 40.7105 23.9413 40.7022 23.9164 40.6862C23.8915 40.6701 23.8719 40.6471 23.86 40.62C23.8383 40.5787 23.8335 40.5306 23.8466 40.4858C23.8596 40.4411 23.8895 40.4031 23.93 40.38L24.82 39.85C24.8386 39.8381 24.8595 39.8304 24.8814 39.8275C24.9032 39.8247 24.9255 39.8266 24.9465 39.8333C24.9675 39.84 24.9867 39.8512 25.0029 39.8662C25.0191 39.8812 25.0317 39.8995 25.04 39.92C25.0521 39.9401 25.06 39.9625 25.063 39.9858C25.066 40.0091 25.0642 40.0328 25.0576 40.0553C25.051 40.0779 25.0399 40.0988 25.0248 40.1168C25.0097 40.1348 24.9911 40.1495 24.97 40.16L24.09 40.69C24.0629 40.7059 24.0314 40.7129 24 40.71V40.71ZM25.77 39.66C25.7409 39.6582 25.7128 39.649 25.6883 39.6333C25.6637 39.6175 25.6437 39.5957 25.63 39.57C25.61 39.5268 25.6061 39.4779 25.6189 39.4321C25.6318 39.3862 25.6605 39.3465 25.7 39.32L26.59 38.79C26.6298 38.7687 26.6764 38.7642 26.7195 38.7773C26.7627 38.7905 26.7988 38.8202 26.82 38.86C26.84 38.9032 26.8439 38.952 26.8311 38.9979C26.8183 39.0437 26.7895 39.0834 26.75 39.11L25.86 39.63L25.77 39.66ZM27.54 38.6C27.5107 38.5992 27.4821 38.5905 27.4574 38.5746C27.4327 38.5587 27.4128 38.5364 27.4 38.51C27.3816 38.4671 27.3795 38.419 27.3943 38.3747C27.409 38.3305 27.4395 38.2932 27.48 38.27L28.36 37.74C28.3794 37.728 28.401 37.7203 28.4236 37.7173C28.4462 37.7144 28.4691 37.7163 28.4909 37.7229C28.5126 37.7295 28.5327 37.7407 28.5498 37.7557C28.5669 37.7708 28.5806 37.7892 28.59 37.81C28.6094 37.8517 28.6129 37.899 28.6001 37.9431C28.5872 37.9872 28.5588 38.0252 28.52 38.05L27.63 38.58L27.54 38.6ZM29.32 37.55C29.2909 37.5482 29.2628 37.539 29.2383 37.5233C29.2137 37.5075 29.1937 37.4857 29.18 37.46C29.1578 37.4172 29.1527 37.3676 29.1657 37.3211C29.1787 37.2747 29.2088 37.235 29.25 37.21L30.14 36.68C30.159 36.6697 30.1798 36.6633 30.2013 36.6613C30.2227 36.6592 30.2444 36.6615 30.2649 36.6681C30.2855 36.6746 30.3045 36.6852 30.3208 36.6993C30.3372 36.7134 30.3505 36.7306 30.36 36.75C30.3817 36.7912 30.3865 36.8393 30.3735 36.8841C30.3604 36.9289 30.3305 36.9668 30.29 36.99L29.41 37.52L29.32 37.55ZM31.09 36.49C31.0604 36.4905 31.0313 36.4822 31.0064 36.4662C30.9815 36.4501 30.9619 36.4271 30.95 36.4C30.9307 36.3583 30.9271 36.311 30.94 36.2668C30.9529 36.2227 30.9813 36.1847 31.02 36.16L31.91 35.63C31.9486 35.6079 31.9943 35.6019 32.0373 35.6131C32.0802 35.6243 32.1171 35.6519 32.14 35.69C32.1614 35.7339 32.165 35.7844 32.1501 35.831C32.1352 35.8776 32.103 35.9166 32.06 35.94L31.18 36.47L31.09 36.49ZM32.86 35.44C32.8034 35.4295 32.7531 35.3971 32.72 35.35C32.7 35.3068 32.6961 35.2579 32.7089 35.2121C32.7218 35.1662 32.7505 35.1265 32.79 35.1L33.68 34.57C33.6994 34.558 33.721 34.5503 33.7436 34.5473C33.7662 34.5444 33.7891 34.5463 33.8109 34.5529C33.8326 34.5595 33.8527 34.5707 33.8698 34.5857C33.8869 34.6008 33.9006 34.6192 33.91 34.64C33.9294 34.6817 33.9329 34.729 33.92 34.7731C33.9072 34.8172 33.8787 34.8552 33.84 34.88L32.95 35.41L32.86 35.44ZM34.64 34.38C34.6101 34.3819 34.5804 34.3742 34.5552 34.358C34.53 34.3418 34.5107 34.318 34.5 34.29C34.4877 34.2691 34.4798 34.2459 34.4766 34.2219C34.4735 34.1978 34.4752 34.1734 34.4818 34.1501C34.4883 34.1267 34.4995 34.1049 34.5147 34.086C34.5298 34.0671 34.5487 34.0514 34.57 34.04L35.45 33.52C35.4687 33.5076 35.4898 33.4994 35.512 33.4958C35.5341 33.4921 35.5567 33.4931 35.5784 33.4988C35.6001 33.5045 35.6203 33.5146 35.6378 33.5286C35.6553 33.5426 35.6697 33.5601 35.68 33.58C35.7022 33.6227 35.7074 33.6724 35.6944 33.7188C35.6814 33.7652 35.6512 33.805 35.61 33.83L34.72 34.36L34.64 34.38ZM36.41 33.32C36.3804 33.3205 36.3513 33.3122 36.3264 33.2962C36.3015 33.2801 36.2819 33.2571 36.27 33.23C36.2507 33.1883 36.2471 33.141 36.26 33.0968C36.2729 33.0527 36.3013 33.0147 36.34 32.99L37.23 32.46C37.2486 32.4481 37.2695 32.4404 37.2914 32.4375C37.3132 32.4346 37.3355 32.4366 37.3565 32.4433C37.3775 32.45 37.3967 32.4612 37.4129 32.4762C37.4291 32.4912 37.4417 32.5095 37.45 32.53C37.4621 32.5501 37.47 32.5725 37.473 32.5958C37.476 32.6191 37.4742 32.6428 37.4676 32.6653C37.461 32.6879 37.4499 32.7088 37.4348 32.7268C37.4197 32.7448 37.4011 32.7595 37.38 32.77L36.5 33.3C36.4729 33.3159 36.4414 33.3229 36.41 33.32V33.32ZM38.18 32.32C38.1504 32.3205 38.1213 32.3122 38.0964 32.2962C38.0715 32.2801 38.0519 32.2571 38.04 32.23C38.02 32.1868 38.0161 32.1379 38.029 32.0921C38.0418 32.0462 38.0705 32.0065 38.11 31.98L39 31.46C39.0386 31.4379 39.0843 31.4319 39.1272 31.4431C39.1702 31.4543 39.2071 31.4819 39.23 31.52C39.25 31.5632 39.2539 31.612 39.2411 31.6579C39.2283 31.7037 39.1995 31.7434 39.16 31.77L38.27 32.3L38.18 32.32ZM40 31.21C39.969 31.2111 39.9383 31.2033 39.9116 31.1873C39.885 31.1713 39.8636 31.1479 39.85 31.12C39.8316 31.0771 39.8295 31.029 39.8443 30.9847C39.859 30.9405 39.8895 30.9032 39.93 30.88L40.81 30.35C40.8294 30.338 40.851 30.3303 40.8736 30.3273C40.8962 30.3244 40.9191 30.3263 40.9409 30.3329C40.9626 30.3395 40.9827 30.3507 40.9998 30.3657C41.0169 30.3808 41.0306 30.3992 41.04 30.42C41.0594 30.4617 41.0629 30.509 41.0501 30.5531C41.0372 30.5972 41.0087 30.6352 40.97 30.66L40.08 31.19C40.0562 31.2051 40.0282 31.2122 40 31.21V31.21ZM41.77 30.16C41.7409 30.1582 41.7128 30.149 41.6883 30.1333C41.6637 30.1175 41.6437 30.0957 41.63 30.07C41.6078 30.0272 41.6027 29.9776 41.6157 29.9311C41.6287 29.8847 41.6588 29.845 41.7 29.82L42.59 29.3C42.6079 29.2878 42.6283 29.2796 42.6497 29.2761C42.671 29.2725 42.6929 29.2736 42.7138 29.2793C42.7348 29.285 42.7542 29.2952 42.7708 29.3091C42.7874 29.323 42.8008 29.3404 42.81 29.36C42.8223 29.3809 42.8303 29.404 42.8334 29.4281C42.8366 29.4521 42.8348 29.4765 42.8283 29.4999C42.8217 29.5232 42.8106 29.545 42.7954 29.5639C42.7802 29.5828 42.7614 29.5985 42.74 29.61L41.86 30.13L41.77 30.16ZM43.54 29.1C43.5104 29.1005 43.4813 29.0922 43.4564 29.0762C43.4315 29.0601 43.4119 29.0371 43.4 29.01C43.3807 28.9683 43.3771 28.921 43.39 28.8768C43.4029 28.8327 43.4313 28.7947 43.47 28.77L44.36 28.24C44.3794 28.228 44.401 28.2203 44.4236 28.2173C44.4462 28.2144 44.4691 28.2163 44.4909 28.2229C44.5126 28.2295 44.5327 28.2407 44.5498 28.2557C44.5669 28.2708 44.5806 28.2892 44.59 28.31C44.6085 28.3528 44.6105 28.401 44.5958 28.4452C44.581 28.4895 44.5505 28.5268 44.51 28.55L43.63 29.08C43.6113 29.093 43.5899 29.1015 43.5673 29.105C43.5448 29.1084 43.5218 29.1067 43.5 29.1H43.54ZM45.31 28.05C45.2812 28.0473 45.2534 28.0378 45.229 28.0221C45.2046 28.0064 45.1844 27.9851 45.17 27.96C45.15 27.9168 45.1461 27.8679 45.1589 27.8221C45.1718 27.7762 45.2005 27.7365 45.24 27.71L46.13 27.18C46.1698 27.1587 46.2164 27.1542 46.2595 27.1673C46.3026 27.1805 46.3388 27.2102 46.36 27.25C46.38 27.2932 46.3839 27.342 46.3711 27.3879C46.3583 27.4337 46.3295 27.4734 46.29 27.5L45.4 28.02L45.31 28.05ZM47.05 27C47.0201 27.0019 46.9904 26.9942 46.9652 26.978C46.94 26.9618 46.9207 26.938 46.91 26.91C46.8979 26.8898 46.8901 26.8674 46.887 26.8441C46.884 26.8208 46.8859 26.7972 46.8924 26.7746C46.899 26.7521 46.9102 26.7311 46.9253 26.7131C46.9403 26.6951 46.959 26.6804 46.98 26.67L47.86 26.14C47.8787 26.1276 47.8998 26.1194 47.9219 26.1157C47.9441 26.1121 47.9667 26.1131 47.9884 26.1188C48.01 26.1245 48.0303 26.1346 48.0478 26.1486C48.0653 26.1626 48.0797 26.1801 48.09 26.2C48.1122 26.2427 48.1174 26.2924 48.1044 26.3388C48.0914 26.3852 48.0612 26.4249 48.02 26.45L47.13 26.98L47.05 27ZM48.82 25.95C48.7914 25.9466 48.7639 25.9367 48.7396 25.9211C48.7154 25.9055 48.695 25.8846 48.68 25.86C48.66 25.8168 48.6561 25.7679 48.669 25.7221C48.6818 25.6762 48.7105 25.6365 48.75 25.61L49.64 25.08C49.6594 25.068 49.681 25.0603 49.7036 25.0573C49.7262 25.0544 49.7491 25.0563 49.7709 25.0629C49.7926 25.0695 49.8127 25.0807 49.8298 25.0957C49.8469 25.1108 49.8606 25.1292 49.87 25.15C49.8909 25.1925 49.8943 25.2415 49.8793 25.2864C49.8643 25.3313 49.8322 25.3685 49.79 25.39L48.91 25.92C48.8826 25.9353 48.8513 25.9423 48.82 25.94V25.95ZM50.59 24.89C50.5607 24.8892 50.5321 24.8805 50.5074 24.8646C50.4827 24.8487 50.4629 24.8264 50.45 24.8C50.4307 24.7583 50.4271 24.711 50.44 24.6668C50.4529 24.6227 50.4813 24.5847 50.52 24.56L51.41 24.03C51.4486 24.0079 51.4943 24.0019 51.5373 24.0131C51.5802 24.0243 51.6171 24.0519 51.64 24.09C51.66 24.1332 51.6639 24.182 51.6511 24.2279C51.6383 24.2737 51.6095 24.3134 51.57 24.34L50.68 24.87L50.59 24.89ZM52.37 23.83C52.3401 23.8319 52.3104 23.8242 52.2852 23.808C52.26 23.7918 52.2407 23.768 52.23 23.74C52.2179 23.7198 52.2101 23.6974 52.2071 23.6741C52.204 23.6508 52.2058 23.6272 52.2124 23.6046C52.219 23.5821 52.2302 23.5611 52.2453 23.5431C52.2603 23.5251 52.279 23.5104 52.3 23.5L53.18 22.97C53.1994 22.958 53.221 22.9503 53.2436 22.9473C53.2662 22.9444 53.2891 22.9463 53.3109 22.9529C53.3326 22.9595 53.3527 22.9707 53.3698 22.9857C53.3869 23.0008 53.4006 23.0192 53.41 23.04C53.4294 23.0817 53.4329 23.129 53.4201 23.1731C53.4072 23.2172 53.3787 23.2552 53.34 23.28L52.45 23.81C52.4388 23.8186 52.4254 23.824 52.4114 23.8258C52.3973 23.8275 52.383 23.8255 52.37 23.82V23.83ZM54.14 22.83C54.1104 22.8305 54.0813 22.8222 54.0564 22.8062C54.0315 22.7901 54.0119 22.7671 54 22.74C53.9778 22.6972 53.9727 22.6476 53.9857 22.6011C53.9987 22.5547 54.0288 22.515 54.07 22.49L54.96 21.97C54.9779 21.9578 54.9983 21.9496 55.0197 21.946C55.041 21.9425 55.0629 21.9436 55.0838 21.9493C55.1047 21.955 55.1242 21.9652 55.1408 21.9791C55.1574 21.993 55.1708 22.0104 55.18 22.03C55.1923 22.0509 55.2003 22.074 55.2034 22.0981C55.2066 22.1221 55.2048 22.1465 55.1983 22.1699C55.1917 22.1932 55.1805 22.215 55.1654 22.2339C55.1502 22.2528 55.1314 22.2685 55.11 22.28L54.23 22.81L54.14 22.83ZM55.91 21.77C55.8804 21.7705 55.8513 21.7622 55.8264 21.7462C55.8015 21.7301 55.7819 21.7071 55.77 21.68C55.7507 21.6383 55.7471 21.591 55.76 21.5468C55.7729 21.5027 55.8013 21.4647 55.84 21.44L56.73 20.91C56.7494 20.898 56.771 20.8903 56.7936 20.8873C56.8162 20.8844 56.8391 20.8863 56.8609 20.8929C56.8826 20.8995 56.9027 20.9107 56.9198 20.9257C56.9369 20.9408 56.9506 20.9592 56.96 20.98C56.9794 21.0217 56.9829 21.069 56.9701 21.1131C56.9572 21.1572 56.9287 21.1952 56.89 21.22L56 21.75C55.9664 21.7471 55.9347 21.733 55.91 21.71V21.77ZM57.68 20.72C57.6512 20.7173 57.6234 20.7078 57.599 20.6921C57.5746 20.6765 57.5544 20.6551 57.54 20.63C57.5186 20.586 57.515 20.5355 57.5299 20.4889C57.5448 20.4424 57.5771 20.4033 57.62 20.38L58.5 19.86C58.5187 19.8476 58.5398 19.8394 58.5619 19.8358C58.5841 19.8321 58.6067 19.8331 58.6284 19.8388C58.65 19.8445 58.6703 19.8546 58.6878 19.8686C58.7053 19.8826 58.7197 19.9001 58.73 19.92C58.75 19.9631 58.7539 20.012 58.7411 20.0579C58.7283 20.1037 58.6995 20.1434 58.66 20.17L57.77 20.69L57.68 20.72Z" fill="#E0E0E0"/>
<path d="M59.46 19.5999C59.4304 19.6004 59.4013 19.5921 59.3764 19.5761C59.3515 19.5601 59.3319 19.5371 59.32 19.5099C59.2984 19.4687 59.2935 19.4206 59.3066 19.3758C59.3196 19.331 59.3496 19.2931 59.39 19.2699L59.84 18.9999C59.8594 18.988 59.8811 18.9802 59.9036 18.9773C59.9262 18.9744 59.9491 18.9763 59.9709 18.9829C59.9926 18.9895 60.0128 19.0007 60.0299 19.0157C60.047 19.0307 60.0607 19.0492 60.07 19.0699C60.0885 19.1128 60.0905 19.1609 60.0758 19.2052C60.061 19.2494 60.0305 19.2867 59.99 19.3099L59.55 19.5799C59.5229 19.5959 59.4914 19.6029 59.46 19.5999V19.5999Z" fill="#E0E0E0"/>
<path d="M12 54.6499C11.969 54.6511 11.9383 54.6432 11.9117 54.6272C11.885 54.6112 11.8636 54.5878 11.8501 54.5599C11.8291 54.5174 11.8258 54.4684 11.8408 54.4235C11.8558 54.3785 11.8878 54.3413 11.93 54.3199L12.3801 54.0499C12.398 54.0377 12.4183 54.0295 12.4397 54.026C12.4611 54.0224 12.483 54.0235 12.5039 54.0292C12.5248 54.0349 12.5442 54.0451 12.5608 54.059C12.5774 54.0729 12.5908 54.0903 12.6001 54.1099C12.6223 54.1527 12.6274 54.2023 12.6144 54.2487C12.6014 54.2951 12.5713 54.3349 12.53 54.3599L12.0801 54.6299L12 54.6499Z" fill="#E0E0E0"/>
<path d="M13.3501 53.8599C13.3214 53.8565 13.2939 53.8466 13.2697 53.831C13.2454 53.8154 13.2251 53.7945 13.2101 53.7699C13.1901 53.7267 13.1862 53.6778 13.199 53.632C13.2118 53.5862 13.2406 53.5464 13.2801 53.5199L14.1701 52.9899C14.1894 52.9779 14.2111 52.9702 14.2336 52.9673C14.2562 52.9643 14.2791 52.9662 14.3009 52.9728C14.3227 52.9795 14.3428 52.9907 14.3599 53.0057C14.377 53.0207 14.3907 53.0392 14.4001 53.0599C14.421 53.1024 14.4243 53.1514 14.4093 53.1963C14.3944 53.2412 14.3623 53.2785 14.3201 53.2999L13.4401 53.8299C13.4138 53.8488 13.3824 53.8592 13.3501 53.8599V53.8599ZM15.1201 52.7999C15.0907 52.7992 15.0621 52.7904 15.0375 52.7745C15.0128 52.7587 14.9929 52.7363 14.9801 52.7099C14.9607 52.6682 14.9572 52.6209 14.97 52.5768C14.9829 52.5326 15.0113 52.4947 15.0501 52.4699L15.9401 51.9399C15.9588 51.9276 15.9799 51.9193 16.002 51.9157C16.0241 51.912 16.0467 51.9131 16.0684 51.9187C16.0901 51.9244 16.1103 51.9345 16.1279 51.9485C16.1454 51.9625 16.1598 51.98 16.1701 51.9999C16.19 52.0431 16.194 52.092 16.1811 52.1378C16.1683 52.1836 16.1396 52.2234 16.1001 52.2499L15.2101 52.7799L15.1201 52.7999ZM16.9001 51.7399C16.8702 51.7418 16.8404 51.7342 16.8152 51.718C16.79 51.7018 16.7707 51.6779 16.7601 51.6499C16.7479 51.6298 16.7401 51.6074 16.7371 51.5841C16.7341 51.5608 16.7359 51.5371 16.7425 51.5146C16.749 51.492 16.7602 51.4711 16.7753 51.453C16.7904 51.435 16.809 51.4203 16.8301 51.4099L17.7101 50.8799C17.7294 50.8679 17.7511 50.8602 17.7736 50.8573C17.7962 50.8543 17.8191 50.8562 17.8409 50.8628C17.8627 50.8695 17.8828 50.8807 17.8999 50.8957C17.917 50.9107 17.9307 50.9292 17.9401 50.9499C17.9618 50.9912 17.9666 51.0393 17.9535 51.084C17.9405 51.1288 17.9105 51.1668 17.8701 51.1899L16.9801 51.7199C16.9698 51.7302 16.9569 51.7375 16.9428 51.741C16.9288 51.7445 16.914 51.7441 16.9001 51.7399V51.7399ZM18.6701 50.7399C18.6405 50.7404 18.6114 50.7321 18.5864 50.7161C18.5615 50.7001 18.5419 50.677 18.5301 50.6499C18.5101 50.6067 18.5062 50.5578 18.519 50.512C18.5318 50.4662 18.5606 50.4264 18.6001 50.3999L19.4901 49.8799C19.508 49.8677 19.5283 49.8596 19.5497 49.856C19.5711 49.8524 19.593 49.8535 19.6139 49.8592C19.6348 49.8649 19.6542 49.8751 19.6708 49.889C19.6874 49.9029 19.7008 49.9203 19.7101 49.9399C19.7224 49.9608 19.7303 49.9839 19.7335 50.008C19.7366 50.032 19.7349 50.0565 19.7283 50.0798C19.7218 50.1032 19.7106 50.1249 19.6954 50.1439C19.6803 50.1628 19.6614 50.1784 19.6401 50.1899L18.7601 50.7199L18.6701 50.7399ZM20.4401 49.6799C20.4105 49.6804 20.3814 49.6721 20.3564 49.6561C20.3315 49.6401 20.3119 49.617 20.3001 49.5899C20.2807 49.5482 20.2772 49.5009 20.29 49.4568C20.3029 49.4126 20.3313 49.3747 20.3701 49.3499L21.2601 48.8199C21.2794 48.8079 21.3011 48.8002 21.3236 48.7973C21.3462 48.7943 21.3691 48.7962 21.3909 48.8028C21.4127 48.8095 21.4328 48.8207 21.4499 48.8357C21.467 48.8507 21.4807 48.8692 21.4901 48.8899C21.5094 48.9316 21.513 48.9789 21.5001 49.023C21.4872 49.0672 21.4588 49.1051 21.4201 49.1299L20.5301 49.6599C20.4976 49.6599 20.466 49.6494 20.4401 49.6299V49.6799ZM22.2201 48.6799C22.1897 48.678 22.1602 48.6688 22.1341 48.6532C22.108 48.6375 22.086 48.6158 22.0701 48.5899C22.0487 48.5459 22.0451 48.4954 22.06 48.4489C22.0749 48.4023 22.1071 48.3633 22.1501 48.3399L23.0301 47.8199C23.0488 47.8076 23.0699 47.7993 23.092 47.7957C23.1141 47.792 23.1367 47.7931 23.1584 47.7987C23.1801 47.8044 23.2003 47.8145 23.2179 47.8285C23.2354 47.8425 23.2497 47.86 23.2601 47.8799C23.28 47.9231 23.284 47.972 23.2711 48.0178C23.2583 48.0636 23.2296 48.1034 23.1901 48.1299L22.3001 48.6499C22.2819 48.6459 22.265 48.6374 22.251 48.6252C22.2371 48.613 22.2264 48.5974 22.2201 48.5799V48.6799ZM24.0001 47.5199C23.9705 47.5204 23.9413 47.5121 23.9164 47.4961C23.8915 47.4801 23.8719 47.457 23.8601 47.4299C23.8384 47.3886 23.8336 47.3405 23.8466 47.2958C23.8597 47.251 23.8896 47.213 23.9301 47.1899L24.8201 46.6599C24.8386 46.648 24.8596 46.6403 24.8814 46.6375C24.9033 46.6346 24.9255 46.6366 24.9465 46.6432C24.9675 46.6499 24.9868 46.6611 25.003 46.6761C25.0191 46.6911 25.0318 46.7095 25.0401 46.7299C25.0588 46.7487 25.0729 46.7715 25.0812 46.7967C25.0895 46.8219 25.0918 46.8487 25.088 46.875C25.0841 46.9012 25.0741 46.9262 25.0588 46.9479C25.0436 46.9695 25.0234 46.9874 25.0001 46.9999L24.1201 47.5299C24.1005 47.5366 24.0797 47.5392 24.059 47.5375C24.0384 47.5357 24.0183 47.5298 24.0001 47.5199V47.5199ZM25.7701 46.5199C25.741 46.5181 25.7128 46.509 25.6883 46.4932C25.6638 46.4774 25.6437 46.4556 25.6301 46.4299C25.6101 46.3867 25.6062 46.3378 25.619 46.292C25.6318 46.2462 25.6606 46.2064 25.7001 46.1799L26.5901 45.6499C26.6303 45.6312 26.676 45.6279 26.7185 45.6409C26.7609 45.6538 26.7971 45.6819 26.8201 45.7199C26.8401 45.7631 26.844 45.812 26.8311 45.8578C26.8183 45.9036 26.7896 45.9434 26.7501 45.9699L25.8601 46.4899C25.8254 46.4943 25.7903 46.4873 25.7601 46.4699L25.7701 46.5199ZM27.5401 45.4599C27.5107 45.4592 27.4821 45.4504 27.4574 45.4345C27.4328 45.4187 27.4129 45.3963 27.4001 45.3699C27.3807 45.3282 27.3772 45.2809 27.39 45.2368C27.4029 45.1926 27.4313 45.1547 27.4701 45.1299L28.3601 44.5999C28.3794 44.5879 28.4011 44.5802 28.4237 44.5773C28.4462 44.5743 28.4691 44.5762 28.4909 44.5828C28.5127 44.5895 28.5328 44.6007 28.5499 44.6157C28.567 44.6307 28.5807 44.6492 28.5901 44.6699C28.6094 44.7116 28.613 44.7589 28.6001 44.803C28.5872 44.8472 28.5588 44.8851 28.5201 44.9099L27.6301 45.4399L27.5401 45.4599ZM29.3201 44.4599C29.291 44.4582 29.2628 44.449 29.2383 44.4332C29.2138 44.4174 29.1937 44.3956 29.1801 44.3699C29.1678 44.349 29.1598 44.3258 29.1567 44.3018C29.1535 44.2778 29.1553 44.2533 29.1618 44.23C29.1683 44.2066 29.1795 44.1848 29.1947 44.1659C29.2099 44.147 29.2287 44.1314 29.2501 44.1199L30.1301 43.5899C30.1494 43.5779 30.1711 43.5702 30.1937 43.5673C30.2162 43.5643 30.2391 43.5662 30.2609 43.5728C30.2827 43.5795 30.3028 43.5907 30.3199 43.6057C30.337 43.6207 30.3507 43.6392 30.3601 43.6599C30.3818 43.7012 30.3866 43.7493 30.3735 43.794C30.3605 43.8388 30.3305 43.8767 30.2901 43.8999L29.4001 44.4299C29.3801 44.4276 29.3612 44.4198 29.3453 44.4075C29.3294 44.3951 29.3172 44.3787 29.3101 44.3599L29.3201 44.4599ZM31.0901 43.3999C31.0604 43.4004 31.0314 43.3921 31.0064 43.3761C30.9815 43.3601 30.9619 43.337 30.9501 43.3099C30.9276 43.2886 30.9107 43.2622 30.9007 43.2328C30.8908 43.2035 30.8882 43.1722 30.8931 43.1417C30.8981 43.1111 30.9104 43.0822 30.929 43.0575C30.9476 43.0328 30.972 43.013 31.0001 42.9999L31.8901 42.4699C31.9286 42.4479 31.9743 42.4418 32.0173 42.453C32.0603 42.4642 32.0972 42.4918 32.1201 42.5299C32.1415 42.5739 32.1451 42.6244 32.1302 42.6709C32.1153 42.7175 32.083 42.7565 32.0401 42.7799L31.1601 43.3099L31.0901 43.3999ZM32.8601 42.3999C32.8034 42.3894 32.7531 42.3571 32.7201 42.3099C32.7001 42.2667 32.6962 42.2178 32.709 42.172C32.7218 42.1262 32.7506 42.0864 32.7901 42.0599L33.6801 41.5299C33.6994 41.5179 33.7211 41.5102 33.7436 41.5073C33.7662 41.5043 33.7891 41.5062 33.8109 41.5128C33.8327 41.5195 33.8528 41.5307 33.8699 41.5457C33.887 41.5607 33.9007 41.5792 33.9101 41.5999C33.9294 41.6416 33.933 41.6889 33.9201 41.733C33.9072 41.7772 33.8788 41.8151 33.8401 41.8399L32.9501 42.3699C32.9245 42.3601 32.9019 42.3439 32.8844 42.3229C32.8669 42.3019 32.8551 42.2768 32.8501 42.2499L32.8601 42.3999ZM34.6401 41.3399C34.6102 41.3418 34.5804 41.3342 34.5552 41.318C34.53 41.3018 34.5107 41.2779 34.5001 41.2499C34.4878 41.229 34.4798 41.2058 34.4767 41.1818C34.4735 41.1578 34.4753 41.1333 34.4818 41.11C34.4884 41.0866 34.4995 41.0648 34.5147 41.0459C34.5299 41.027 34.5487 41.0114 34.5701 40.9999L35.4501 40.4799C35.4688 40.4676 35.4899 40.4593 35.512 40.4557C35.5341 40.452 35.5567 40.4531 35.5784 40.4587C35.6001 40.4644 35.6204 40.4745 35.6379 40.4885C35.6554 40.5025 35.6697 40.52 35.6801 40.5399C35.7 40.5831 35.704 40.632 35.6911 40.6778C35.6783 40.7236 35.6496 40.7634 35.6101 40.7899L34.7201 41.3199L34.6401 41.3399ZM36.4101 40.2799C36.3805 40.2804 36.3514 40.2721 36.3264 40.2561C36.3015 40.2401 36.2819 40.217 36.2701 40.1899C36.2484 40.1486 36.2435 40.1005 36.2566 40.0558C36.2697 40.011 36.2996 39.973 36.3401 39.9499L37.2301 39.4199C37.2486 39.408 37.2696 39.4003 37.2914 39.3975C37.3133 39.3946 37.3355 39.3965 37.3565 39.4032C37.3775 39.4099 37.3968 39.4211 37.413 39.4361C37.4291 39.4511 37.4418 39.4695 37.4501 39.4899C37.4622 39.51 37.47 39.5324 37.473 39.5557C37.4761 39.579 37.4742 39.6027 37.4677 39.6252C37.4611 39.6478 37.4499 39.6687 37.4348 39.6867C37.4197 39.7048 37.4011 39.7194 37.3801 39.7299L36.5001 40.2599C36.4726 40.2503 36.4485 40.2329 36.4307 40.2098C36.413 40.1867 36.4023 40.1589 36.4001 40.1299L36.4101 40.2799ZM38.1801 39.2299C38.1494 39.2441 38.1148 39.2475 38.0819 39.2396C38.049 39.2317 38.0198 39.2129 37.9989 39.1862C37.9781 39.1596 37.9669 39.1267 37.9671 39.0929C37.9673 39.059 37.9789 39.0263 38.0001 38.9999C37.9801 38.9567 37.9762 38.9078 37.989 38.862C38.0018 38.8162 38.0306 38.7764 38.0701 38.7499L38.9601 38.2299C38.9986 38.2079 39.0443 38.2018 39.0873 38.213C39.1303 38.2242 39.1672 38.2518 39.1901 38.2899C39.21 38.3331 39.214 38.382 39.2011 38.4278C39.1883 38.4736 39.1596 38.5134 39.1201 38.5399L38.2301 39.0699L38.1801 39.2299ZM39.9401 37.9999C39.9107 37.9992 39.8821 37.9904 39.8574 37.9745C39.8328 37.9587 39.8129 37.9363 39.8001 37.9099C39.7816 37.867 39.7796 37.8189 39.7943 37.7746C39.8091 37.7304 39.8396 37.6931 39.8801 37.6699L40.7601 37.1399C40.7794 37.1279 40.8011 37.1202 40.8236 37.1173C40.8462 37.1143 40.8691 37.1162 40.8909 37.1228C40.9127 37.1295 40.9328 37.1407 40.9499 37.1557C40.967 37.1707 40.9807 37.1892 40.9901 37.2099C41.0094 37.2516 41.013 37.2989 41.0001 37.343C40.9872 37.3872 40.9588 37.4251 40.9201 37.4499L40.0001 37.9999C39.9803 38.0039 39.9599 38.0039 39.9401 37.9999V37.9999ZM41.7201 36.9999C41.691 36.9982 41.6628 36.989 41.6383 36.9732C41.6138 36.9574 41.5937 36.9356 41.5801 36.9099C41.5578 36.8671 41.5527 36.8175 41.5657 36.7711C41.5787 36.7247 41.6089 36.6849 41.6501 36.6599L42.5301 36.1399C42.5488 36.1276 42.5699 36.1193 42.592 36.1157C42.6141 36.112 42.6367 36.1131 42.6584 36.1187C42.6801 36.1244 42.7003 36.1345 42.7179 36.1485C42.7354 36.1625 42.7497 36.18 42.7601 36.1999C42.7823 36.2427 42.7874 36.2923 42.7744 36.3387C42.7614 36.3851 42.7313 36.4249 42.6901 36.4499L41.8101 36.9699C41.7838 36.9888 41.7524 36.9992 41.7201 36.9999V36.9999ZM43.4901 35.9399C43.4605 35.9404 43.4314 35.9321 43.4064 35.9161C43.3815 35.9001 43.3619 35.877 43.3501 35.8499C43.3307 35.8082 43.3272 35.7609 43.34 35.7168C43.3529 35.6726 43.3813 35.6347 43.4201 35.6099L44.3101 35.0799C44.3294 35.0679 44.3511 35.0602 44.3736 35.0573C44.3962 35.0543 44.4191 35.0562 44.4409 35.0628C44.4627 35.0695 44.4828 35.0807 44.4999 35.0957C44.517 35.1107 44.5307 35.1292 44.5401 35.1499C44.5585 35.1927 44.5606 35.2409 44.5458 35.2851C44.5311 35.3294 44.5005 35.3667 44.4601 35.3899L43.5801 35.9199C43.5498 35.9259 43.5183 35.9224 43.4901 35.9099V35.9399ZM45.2601 34.9399C45.2312 34.9373 45.2034 34.9277 45.179 34.912C45.1547 34.8964 45.1344 34.8751 45.1201 34.8499C45.1001 34.8067 45.0962 34.7578 45.109 34.712C45.1218 34.6662 45.1506 34.6264 45.1901 34.5999L46.0801 34.0699C46.0994 34.0579 46.1211 34.0502 46.1437 34.0473C46.1662 34.0443 46.1891 34.0462 46.2109 34.0528C46.2327 34.0595 46.2528 34.0707 46.2699 34.0857C46.287 34.1007 46.3007 34.1192 46.3101 34.1399C46.33 34.1831 46.334 34.232 46.3211 34.2778C46.3083 34.3236 46.2796 34.3634 46.2401 34.3899L45.3501 34.9099C45.3154 34.9036 45.2837 34.886 45.2601 34.8599V34.9399ZM47.0001 33.7999C46.9702 33.8018 46.9404 33.7942 46.9152 33.778C46.89 33.7618 46.8707 33.7379 46.8601 33.7099C46.8479 33.6898 46.8401 33.6674 46.8371 33.6441C46.8341 33.6208 46.8359 33.5971 46.8425 33.5746C46.8491 33.552 46.8602 33.5311 46.8753 33.513C46.8904 33.495 46.909 33.4803 46.9301 33.4699L47.8101 32.9399C47.8288 32.9276 47.8499 32.9193 47.872 32.9157C47.8941 32.912 47.9167 32.9131 47.9384 32.9187C47.9601 32.9244 47.9803 32.9345 47.9979 32.9485C48.0154 32.9625 48.0297 32.98 48.0401 32.9999C48.06 33.0431 48.064 33.092 48.0511 33.1378C48.0383 33.1836 48.0096 33.2234 47.9701 33.2499L47.0801 33.7799L47.0001 33.7999ZM48.7701 32.7999C48.7414 32.7965 48.7139 32.7866 48.6897 32.771C48.6654 32.7554 48.645 32.7345 48.6301 32.7099C48.6079 32.6671 48.6027 32.6175 48.6157 32.5711C48.6287 32.5247 48.6589 32.4849 48.7001 32.4599L49.5901 31.9299C49.6086 31.918 49.6296 31.9103 49.6514 31.9075C49.6733 31.9046 49.6955 31.9065 49.7165 31.9132C49.7375 31.9199 49.7568 31.9311 49.773 31.9461C49.7891 31.9611 49.8018 31.9795 49.8101 31.9999C49.8222 32.02 49.83 32.0424 49.833 32.0657C49.8361 32.089 49.8342 32.1127 49.8277 32.1352C49.8211 32.1578 49.8099 32.1787 49.7948 32.1967C49.7797 32.2148 49.7611 32.2294 49.7401 32.2399L48.8601 32.7699C48.8424 32.7661 48.8255 32.7593 48.8101 32.7499L48.7701 32.7999ZM50.5401 31.7399C50.5104 31.7404 50.4814 31.7321 50.4564 31.7161C50.4315 31.7001 50.4119 31.677 50.4001 31.6499C50.3807 31.6082 50.3772 31.5609 50.39 31.5168C50.4029 31.4726 50.4313 31.4347 50.4701 31.4099L51.3601 30.8799C51.3986 30.8579 51.4443 30.8518 51.4873 30.863C51.5303 30.8742 51.5672 30.9018 51.5901 30.9399C51.61 30.9831 51.614 31.032 51.6011 31.0778C51.5883 31.1236 51.5596 31.1634 51.5201 31.1899L50.6301 31.7199L50.5401 31.7399ZM52.3101 30.6799C52.2807 30.6792 52.2521 30.6704 52.2274 30.6545C52.2027 30.6387 52.1829 30.6163 52.1701 30.5899C52.1516 30.547 52.1496 30.4989 52.1643 30.4546C52.1791 30.4104 52.2096 30.3731 52.2501 30.3499L53.1301 29.8199C53.1494 29.8079 53.1711 29.8002 53.1937 29.7973C53.2162 29.7943 53.2391 29.7962 53.2609 29.8028C53.2827 29.8095 53.3028 29.8207 53.3199 29.8357C53.337 29.8507 53.3507 29.8692 53.3601 29.8899C53.3794 29.9316 53.383 29.9789 53.3701 30.023C53.3572 30.0672 53.3288 30.1051 53.2901 30.1299L52.4001 30.6599C52.3808 30.6551 52.3634 30.6446 52.3501 30.6299L52.3101 30.6799ZM54.0901 29.6299C54.0605 29.6304 54.0314 29.6221 54.0064 29.6061C53.9815 29.5901 53.9619 29.567 53.9501 29.5399C53.9278 29.4971 53.9227 29.4475 53.9357 29.4011C53.9487 29.3547 53.9789 29.3149 54.0201 29.2899L54.9001 28.7699C54.9188 28.7576 54.9399 28.7493 54.962 28.7457C54.9841 28.742 55.0067 28.7431 55.0284 28.7487C55.0501 28.7544 55.0704 28.7645 55.0879 28.7785C55.1054 28.7925 55.1198 28.81 55.1301 28.8299C55.1523 28.8727 55.1574 28.9223 55.1444 28.9687C55.1314 29.0151 55.1013 29.0549 55.0601 29.0799L54.1801 29.6099L54.0901 29.6299ZM55.8601 28.5699C55.8305 28.5704 55.8014 28.5621 55.7764 28.5461C55.7515 28.5301 55.7319 28.507 55.7201 28.4799C55.7007 28.4382 55.6972 28.3909 55.71 28.3468C55.7229 28.3026 55.7513 28.2647 55.7901 28.2399L56.6801 27.7099C56.6994 27.6979 56.7211 27.6902 56.7436 27.6873C56.7662 27.6843 56.7891 27.6862 56.8109 27.6928C56.8327 27.6995 56.8528 27.7107 56.8699 27.7257C56.887 27.7407 56.9007 27.7592 56.9101 27.7799C56.9285 27.8227 56.9306 27.8709 56.9158 27.9151C56.9011 27.9594 56.8705 27.9967 56.8301 28.0199L55.9501 28.5499C55.9316 28.5433 55.9146 28.5331 55.9001 28.5199L55.8601 28.5699ZM57.6301 27.5199C57.6007 27.5192 57.5721 27.5104 57.5474 27.4945C57.5228 27.4787 57.5029 27.4563 57.4901 27.4299C57.4701 27.3867 57.4662 27.3378 57.479 27.292C57.4918 27.2462 57.5206 27.2064 57.5601 27.1799L58.4501 26.6599C58.4688 26.6476 58.4899 26.6393 58.512 26.6357C58.5341 26.632 58.5567 26.6331 58.5784 26.6387C58.6001 26.6444 58.6204 26.6545 58.6379 26.6685C58.6554 26.6825 58.6697 26.7 58.6801 26.7199C58.7 26.7631 58.704 26.812 58.6911 26.8578C58.6783 26.9036 58.6496 26.9434 58.6101 26.9699L57.7201 27.4899C57.7024 27.4861 57.6855 27.4793 57.6701 27.4699L57.6301 27.5199Z" fill="#E0E0E0"/>
<path d="M59.45 26.41C59.4201 26.4119 59.3904 26.4042 59.3652 26.388C59.34 26.3718 59.3207 26.348 59.31 26.32C59.2979 26.2999 59.2901 26.2774 59.2871 26.2542C59.284 26.2309 59.2859 26.2072 59.2924 26.1846C59.299 26.1621 59.3102 26.1411 59.3253 26.1231C59.3403 26.1051 59.359 26.0904 59.38 26.08L59.83 25.81C59.8486 25.7981 59.8695 25.7904 59.8914 25.7875C59.9132 25.7847 59.9355 25.7866 59.9565 25.7933C59.9775 25.8 59.9968 25.8112 60.0129 25.8262C60.0291 25.8412 60.0418 25.8595 60.05 25.88C60.0622 25.9001 60.07 25.9225 60.073 25.9458C60.076 25.9691 60.0742 25.9928 60.0676 26.0153C60.0611 26.0379 60.0499 26.0588 60.0348 26.0768C60.0197 26.0948 60.0011 26.1095 59.98 26.12L59.53 26.39C59.507 26.4068 59.4783 26.4139 59.45 26.41V26.41Z" fill="#E0E0E0"/>
<path d="M12.0001 61.4599C11.9707 61.4592 11.9421 61.4504 11.9174 61.4346C11.8927 61.4187 11.8729 61.3963 11.8601 61.3699C11.8391 61.3274 11.8358 61.2784 11.8508 61.2335C11.8658 61.1886 11.8978 61.1514 11.9401 61.1299L12.3801 60.8599C12.3994 60.8479 12.4211 60.8402 12.4437 60.8373C12.4662 60.8343 12.4891 60.8362 12.5109 60.8429C12.5327 60.8495 12.5528 60.8607 12.5699 60.8757C12.587 60.8907 12.6007 60.9092 12.6101 60.9299C12.6318 60.9712 12.6366 61.0193 12.6235 61.0641C12.6105 61.1088 12.5805 61.1468 12.5401 61.1699L12.0901 61.4399L12.0001 61.4599Z" fill="#E0E0E0"/>
<path d="M13.3401 60.6699C13.3114 60.6665 13.284 60.6567 13.2597 60.6411C13.2354 60.6255 13.215 60.6046 13.2001 60.5799C13.1801 60.5367 13.1762 60.4878 13.189 60.442C13.2018 60.3962 13.2306 60.3565 13.2701 60.3299L14.1601 59.7999C14.1794 59.7879 14.2011 59.7802 14.2237 59.7773C14.2462 59.7743 14.2691 59.7763 14.2909 59.7829C14.3127 59.7895 14.3328 59.8007 14.3499 59.8157C14.367 59.8307 14.3807 59.8492 14.3901 59.8699C14.411 59.9124 14.4143 59.9614 14.3993 60.0064C14.3844 60.0513 14.3523 60.0885 14.3101 60.1099L13.4301 60.6399C13.4038 60.6588 13.3724 60.6693 13.3401 60.6699ZM15.1101 59.6099C15.0807 59.6092 15.0521 59.6004 15.0274 59.5846C15.0027 59.5687 14.9829 59.5463 14.9701 59.5199C14.9507 59.4782 14.9472 59.4309 14.96 59.3868C14.9729 59.3427 15.0013 59.3047 15.0401 59.2799L15.9301 58.7499C15.9488 58.7376 15.9699 58.7294 15.992 58.7257C16.0141 58.7221 16.0367 58.7231 16.0584 58.7288C16.0801 58.7344 16.1004 58.7446 16.1179 58.7585C16.1354 58.7725 16.1498 58.79 16.1601 58.8099C16.1801 58.8531 16.184 58.902 16.1711 58.9478C16.1583 58.9936 16.1296 59.0334 16.0901 59.0599L15.2001 59.5899L15.1101 59.6099ZM16.8901 58.6099C16.8599 58.6072 16.8311 58.5965 16.8065 58.5789C16.7819 58.5614 16.7624 58.5375 16.7501 58.5099C16.7379 58.4898 16.7301 58.4674 16.7271 58.4441C16.7241 58.4208 16.7259 58.3971 16.7325 58.3746C16.7391 58.352 16.7502 58.3311 16.7653 58.3131C16.7804 58.2951 16.799 58.2804 16.8201 58.2699L17.7001 57.7399C17.7194 57.7279 17.7411 57.7202 17.7636 57.7173C17.7862 57.7143 17.8091 57.7163 17.8309 57.7229C17.8527 57.7295 17.8728 57.7407 17.8899 57.7557C17.907 57.7707 17.9207 57.7892 17.9301 57.8099C17.9494 57.8516 17.953 57.8989 17.9401 57.9431C17.9272 57.9872 17.8988 58.0252 17.8601 58.0499L16.9701 58.5799C16.9418 58.5839 16.9131 58.5767 16.8901 58.5599V58.6099ZM18.6601 57.5499C18.6305 57.5504 18.6014 57.5421 18.5764 57.5261C18.5515 57.5101 18.5319 57.4871 18.5201 57.4599C18.4978 57.4171 18.4927 57.3675 18.5057 57.3211C18.5187 57.2747 18.5489 57.2349 18.5901 57.2099L19.4801 56.6899C19.498 56.6777 19.5183 56.6696 19.5397 56.666C19.5611 56.6624 19.583 56.6635 19.6039 56.6692C19.6248 56.6749 19.6442 56.6851 19.6608 56.699C19.6774 56.713 19.6908 56.7303 19.7001 56.7499C19.7124 56.7708 19.7203 56.794 19.7235 56.818C19.7266 56.8421 19.7249 56.8665 19.7183 56.8898C19.7118 56.9132 19.7006 56.935 19.6854 56.9539C19.6703 56.9728 19.6514 56.9885 19.6301 56.9999L18.7501 57.5299L18.6601 57.5499ZM20.4301 56.4899C20.4004 56.4904 20.3714 56.4821 20.3464 56.4661C20.3215 56.4501 20.3019 56.4271 20.2901 56.3999C20.2707 56.3582 20.2672 56.3109 20.28 56.2668C20.2929 56.2227 20.3213 56.1847 20.3601 56.1599L21.2501 55.6299C21.2694 55.6179 21.2911 55.6102 21.3137 55.6073C21.3362 55.6043 21.3591 55.6063 21.3809 55.6129C21.4027 55.6195 21.4228 55.6307 21.4399 55.6457C21.457 55.6607 21.4707 55.6792 21.4801 55.6999C21.4994 55.7416 21.503 55.7889 21.4901 55.8331C21.4772 55.8772 21.4488 55.9152 21.4101 55.9399L20.5201 56.4699C20.4876 56.4699 20.456 56.4594 20.4301 56.4399V56.4899ZM22.2001 55.4899C22.1712 55.4873 22.1434 55.4777 22.119 55.4621C22.0947 55.4464 22.0744 55.4251 22.0601 55.3999C22.0387 55.356 22.0351 55.3055 22.05 55.2589C22.0649 55.2123 22.0971 55.1733 22.1401 55.1499L23.0201 54.6299C23.0388 54.6176 23.0599 54.6094 23.082 54.6057C23.1041 54.6021 23.1267 54.6031 23.1484 54.6088C23.1701 54.6144 23.1904 54.6246 23.2079 54.6385C23.2254 54.6525 23.2398 54.67 23.2501 54.6899C23.27 54.7331 23.274 54.782 23.2611 54.8278C23.2483 54.8737 23.2196 54.9134 23.1801 54.9399L22.2901 55.4599C22.2525 55.4484 22.2205 55.4235 22.2001 55.3899V55.4899ZM24.0001 54.3299C23.9705 54.3304 23.9413 54.3221 23.9164 54.3061C23.8915 54.2901 23.8719 54.2671 23.8601 54.2399C23.8384 54.1986 23.8336 54.1506 23.8466 54.1058C23.8597 54.061 23.8896 54.0231 23.9301 53.9999L24.8101 53.4699C24.8294 53.4579 24.8511 53.4502 24.8736 53.4473C24.8962 53.4443 24.9191 53.4463 24.9409 53.4529C24.9627 53.4595 24.9828 53.4707 24.9999 53.4857C25.017 53.5007 25.0307 53.5192 25.0401 53.5399C25.0618 53.5812 25.0666 53.6293 25.0535 53.6741C25.0405 53.7188 25.0106 53.7568 24.9701 53.7799L24.0901 54.3099C24.0629 54.3259 24.0314 54.3329 24.0001 54.3299V54.3299ZM25.7701 53.3299C25.741 53.3282 25.7128 53.319 25.6883 53.3032C25.6638 53.2875 25.6437 53.2657 25.6301 53.2399C25.6101 53.1967 25.6062 53.1478 25.619 53.102C25.6318 53.0562 25.6606 53.0165 25.7001 52.9899L26.5901 52.4599C26.6303 52.4412 26.676 52.438 26.7185 52.4509C26.7609 52.4638 26.7971 52.492 26.8201 52.5299C26.8415 52.5739 26.8451 52.6244 26.8302 52.671C26.8153 52.7175 26.783 52.7566 26.7401 52.7799L25.8601 53.2999C25.8222 53.3067 25.7831 53.2996 25.7501 53.2799L25.7701 53.3299ZM27.5401 52.2699C27.5107 52.2692 27.4821 52.2604 27.4574 52.2446C27.4328 52.2287 27.4129 52.2063 27.4001 52.1799C27.3807 52.1382 27.3772 52.0909 27.39 52.0468C27.4029 52.0027 27.4313 51.9647 27.4701 51.9399L28.3601 51.4099C28.3794 51.3979 28.4011 51.3902 28.4237 51.3873C28.4462 51.3843 28.4691 51.3863 28.4909 51.3929C28.5127 51.3995 28.5328 51.4107 28.5499 51.4257C28.567 51.4407 28.5807 51.4592 28.5901 51.4799C28.6094 51.5216 28.613 51.5689 28.6001 51.6131C28.5872 51.6572 28.5588 51.6952 28.5201 51.7199L27.6301 52.2499L27.5401 52.2699ZM29.3201 51.2699C29.2907 51.2692 29.2621 51.2604 29.2374 51.2446C29.2128 51.2287 29.1929 51.2063 29.1801 51.1799C29.1678 51.159 29.1598 51.1359 29.1567 51.1118C29.1535 51.0878 29.1553 51.0634 29.1618 51.04C29.1683 51.0167 29.1795 50.9949 29.1947 50.976C29.2099 50.957 29.2287 50.9414 29.2501 50.9299L30.1301 50.3999C30.1494 50.3879 30.1711 50.3802 30.1937 50.3773C30.2162 50.3743 30.2391 50.3763 30.2609 50.3829C30.2827 50.3895 30.3028 50.4007 30.3199 50.4157C30.337 50.4307 30.3507 50.4492 30.3601 50.4699C30.3823 50.5127 30.3874 50.5623 30.3744 50.6087C30.3614 50.6552 30.3313 50.6949 30.2901 50.7199L29.4001 51.2399C29.3783 51.2394 29.3573 51.2325 29.3395 51.2201C29.3217 51.2076 29.308 51.1902 29.3001 51.1699L29.3201 51.2699ZM31.0901 50.2099C31.0604 50.2104 31.0314 50.2021 31.0064 50.1861C30.9815 50.1701 30.9619 50.1471 30.9501 50.1199C30.9284 50.0787 30.9235 50.0306 30.9366 49.9858C30.9497 49.941 30.9796 49.9031 31.0201 49.8799L31.9101 49.3499C31.928 49.3377 31.9483 49.3296 31.9697 49.326C31.9911 49.3224 32.013 49.3235 32.0339 49.3292C32.0548 49.3349 32.0742 49.3451 32.0908 49.359C32.1074 49.373 32.1208 49.3903 32.1301 49.4099C32.1424 49.4308 32.1503 49.454 32.1535 49.478C32.1566 49.5021 32.1549 49.5265 32.1483 49.5498C32.1418 49.5732 32.1306 49.595 32.1154 49.6139C32.1003 49.6328 32.0814 49.6485 32.0601 49.6599L31.1801 50.1899L31.0901 50.2099ZM32.8601 49.2099C32.8314 49.2065 32.8039 49.1967 32.7797 49.1811C32.7554 49.1655 32.735 49.1446 32.7201 49.1199C32.7001 49.0767 32.6962 49.0279 32.709 48.982C32.7218 48.9362 32.7506 48.8965 32.7901 48.8699L33.6801 48.3399C33.6994 48.3279 33.7211 48.3202 33.7436 48.3173C33.7662 48.3143 33.7891 48.3163 33.8109 48.3229C33.8327 48.3295 33.8528 48.3407 33.8699 48.3557C33.887 48.3707 33.9007 48.3892 33.9101 48.4099C33.9294 48.4516 33.933 48.4989 33.9201 48.5431C33.9072 48.5872 33.8788 48.6252 33.8401 48.6499L32.9501 49.1799C32.9227 49.1716 32.898 49.1561 32.8787 49.135C32.8593 49.1139 32.846 49.0879 32.8401 49.0599L32.8601 49.2099ZM34.6201 47.9999C34.589 48.0011 34.5583 47.9932 34.5317 47.9772C34.505 47.9613 34.4836 47.9379 34.4701 47.9099C34.4487 47.866 34.4451 47.8155 34.46 47.7689C34.4749 47.7223 34.5071 47.6833 34.5501 47.6599L35.4301 47.1399C35.4488 47.1276 35.4699 47.1194 35.492 47.1157C35.5141 47.1121 35.5367 47.1131 35.5584 47.1188C35.5801 47.1244 35.6004 47.1346 35.6179 47.1485C35.6354 47.1625 35.6498 47.18 35.6601 47.1999C35.68 47.2431 35.684 47.292 35.6711 47.3378C35.6583 47.3836 35.6296 47.4234 35.5901 47.4499L34.7001 47.9799L34.6201 47.9999ZM36.3901 46.9399C36.3605 46.9404 36.3313 46.9321 36.3064 46.9161C36.2815 46.9001 36.2619 46.8771 36.2501 46.8499C36.2284 46.8086 36.2236 46.7606 36.2366 46.7158C36.2497 46.671 36.2796 46.6331 36.3201 46.6099L37.2101 46.0799C37.2286 46.068 37.2496 46.0604 37.2714 46.0575C37.2933 46.0546 37.3155 46.0566 37.3365 46.0633C37.3575 46.07 37.3768 46.0812 37.393 46.0962C37.4091 46.1111 37.4218 46.1295 37.4301 46.1499C37.4518 46.1912 37.4566 46.2393 37.4435 46.2841C37.4305 46.3288 37.4006 46.3668 37.3601 46.3899L36.4801 46.9199C36.4529 46.9359 36.4214 46.9429 36.3901 46.9399V46.9399ZM38.1601 45.9399C38.1305 45.9404 38.1014 45.9321 38.0764 45.9161C38.0515 45.9001 38.0319 45.8771 38.0201 45.8499C38.0001 45.8067 37.9962 45.7578 38.009 45.712C38.0218 45.6662 38.0506 45.6265 38.0901 45.5999L39.0001 44.9999C39.0386 44.9779 39.0843 44.9718 39.1273 44.9831C39.1703 44.9943 39.2072 45.0219 39.2301 45.0599C39.2515 45.1039 39.2551 45.1544 39.2402 45.201C39.2253 45.2475 39.193 45.2865 39.1501 45.3099L38.2701 45.8399L38.1601 45.9399ZM39.9301 44.8799C39.9007 44.8792 39.8721 44.8704 39.8474 44.8546C39.8228 44.8387 39.8029 44.8163 39.7901 44.7899C39.7707 44.7482 39.7672 44.7009 39.78 44.6568C39.7929 44.6127 39.8213 44.5747 39.8601 44.5499L40.7501 44.0199C40.7635 43.9999 40.7813 43.9831 40.8021 43.971C40.8229 43.9588 40.8462 43.9514 40.8702 43.9495C40.8943 43.9476 40.9184 43.9511 40.9409 43.9598C40.9634 43.9686 40.9836 43.9823 41.0001 43.9999C41.0194 44.0416 41.023 44.0889 41.0101 44.1331C40.9972 44.1772 40.9688 44.2152 40.9301 44.2399L40.0401 44.7699C40.0271 44.7873 40.0106 44.8016 39.9916 44.812C39.9726 44.8223 39.9516 44.8284 39.9301 44.8299V44.8799ZM41.7101 43.8799C41.681 43.8782 41.6528 43.869 41.6283 43.8532C41.6038 43.8375 41.5837 43.8157 41.5701 43.7899C41.5578 43.769 41.5498 43.7459 41.5467 43.7218C41.5435 43.6978 41.5453 43.6734 41.5518 43.65C41.5583 43.6267 41.5695 43.6049 41.5847 43.586C41.5999 43.567 41.6187 43.5514 41.6401 43.5399L42.5201 43.0199C42.5388 43.0076 42.5599 42.9994 42.582 42.9957C42.6041 42.9921 42.6267 42.9931 42.6484 42.9988C42.6701 43.0044 42.6903 43.0146 42.7079 43.0285C42.7254 43.0425 42.7398 43.06 42.7501 43.0799C42.7723 43.1227 42.7774 43.1723 42.7644 43.2187C42.7514 43.2652 42.7213 43.3049 42.6801 43.3299L41.7901 43.8499C41.7719 43.846 41.755 43.8375 41.741 43.8252C41.7271 43.813 41.7164 43.7974 41.7101 43.7799V43.8799ZM43.4801 42.8199C43.4504 42.8204 43.4214 42.8121 43.3964 42.7961C43.3715 42.7801 43.3519 42.7571 43.3401 42.7299C43.3207 42.6882 43.3172 42.6409 43.33 42.5968C43.3429 42.5527 43.3713 42.5147 43.4101 42.4899L44.3001 41.9599C44.3186 41.948 44.3396 41.9404 44.3614 41.9375C44.3833 41.9346 44.4055 41.9366 44.4265 41.9433C44.4475 41.9499 44.4668 41.9612 44.483 41.9762C44.4991 41.9911 44.5118 42.0095 44.5201 42.0299C44.5322 42.05 44.54 42.0725 44.543 42.0958C44.5461 42.119 44.5442 42.1427 44.5377 42.1653C44.5311 42.1878 44.5199 42.2088 44.5048 42.2268C44.4898 42.2448 44.4711 42.2595 44.4501 42.2699L43.5701 42.7999C43.5504 42.7935 43.5322 42.7831 43.5167 42.7694C43.5012 42.7556 43.4887 42.7388 43.4801 42.7199V42.8199ZM45.2501 41.8199C45.2212 41.8173 45.1934 41.8077 45.169 41.7921C45.1447 41.7764 45.1244 41.7551 45.1101 41.7299C45.0901 41.6867 45.0862 41.6378 45.099 41.592C45.1118 41.5462 45.1406 41.5065 45.1801 41.4799L46.0701 40.9499C46.1099 40.9287 46.1564 40.9242 46.1996 40.9373C46.2427 40.9504 46.2789 40.9801 46.3001 41.0199C46.3201 41.0631 46.324 41.112 46.3111 41.1578C46.2983 41.2037 46.2696 41.2434 46.2301 41.2699L45.3401 41.7899L45.2501 41.8199ZM47.0001 40.6099C46.969 40.6111 46.9383 40.6032 46.9117 40.5872C46.885 40.5713 46.8636 40.5479 46.8501 40.5199C46.8316 40.4771 46.8296 40.4289 46.8443 40.3847C46.8591 40.3404 46.8896 40.3031 46.9301 40.2799L47.8101 39.7499C47.8294 39.7379 47.8511 39.7302 47.8736 39.7273C47.8962 39.7243 47.9191 39.7263 47.9409 39.7329C47.9627 39.7395 47.9828 39.7507 47.9999 39.7657C48.017 39.7807 48.0307 39.7992 48.0401 39.8199C48.0594 39.8616 48.063 39.9089 48.0501 39.9531C48.0372 39.9972 48.0088 40.0352 47.9701 40.0599L47.0801 40.5899L47.0001 40.6099ZM48.7701 39.6099C48.741 39.6082 48.7128 39.599 48.6883 39.5832C48.6638 39.5675 48.6437 39.5457 48.6301 39.5199C48.6079 39.4772 48.6027 39.4275 48.6157 39.3811C48.6287 39.3347 48.6589 39.2949 48.7001 39.2699L49.5901 38.7399C49.6086 38.728 49.6296 38.7204 49.6514 38.7175C49.6733 38.7146 49.6955 38.7166 49.7165 38.7233C49.7375 38.7299 49.7568 38.7412 49.773 38.7562C49.7891 38.7711 49.8018 38.7895 49.8101 38.8099C49.8222 38.83 49.83 38.8525 49.833 38.8758C49.8361 38.899 49.8342 38.9227 49.8277 38.9453C49.8211 38.9678 49.8099 38.9888 49.7948 39.0068C49.7797 39.0248 49.7611 39.0395 49.7401 39.0499L48.8601 39.5799C48.8389 39.5773 48.8185 39.5705 48.8001 39.5599L48.7701 39.6099ZM50.5401 38.5499C50.5104 38.5504 50.4814 38.5421 50.4564 38.5261C50.4315 38.5101 50.4119 38.4871 50.4001 38.4599C50.3807 38.4182 50.3772 38.3709 50.39 38.3268C50.4029 38.2827 50.4313 38.2447 50.4701 38.2199L51.3601 37.6899C51.3986 37.6679 51.4443 37.6618 51.4873 37.673C51.5303 37.6843 51.5672 37.7119 51.5901 37.7499C51.61 37.7931 51.614 37.842 51.6011 37.8878C51.5883 37.9337 51.5596 37.9734 51.5201 37.9999L50.6301 38.5299L50.5401 38.5499ZM52.3101 37.4899C52.2807 37.4892 52.2521 37.4804 52.2274 37.4646C52.2027 37.4487 52.1829 37.4263 52.1701 37.3999C52.1516 37.3571 52.1496 37.3089 52.1643 37.2647C52.1791 37.2204 52.2096 37.1831 52.2501 37.1599L53.1301 36.6299C53.1494 36.6179 53.1711 36.6102 53.1937 36.6073C53.2162 36.6043 53.2391 36.6063 53.2609 36.6129C53.2827 36.6195 53.3028 36.6307 53.3199 36.6457C53.337 36.6607 53.3507 36.6792 53.3601 36.6999C53.3794 36.7416 53.383 36.7889 53.3701 36.8331C53.3572 36.8772 53.3288 36.9152 53.2901 36.9399L52.4001 37.4699C52.3772 37.4671 52.356 37.4565 52.3401 37.4399L52.3101 37.4899ZM54.0901 36.4899C54.0605 36.4904 54.0314 36.4821 54.0064 36.4661C53.9815 36.4501 53.9619 36.4271 53.9501 36.3999C53.9278 36.3572 53.9227 36.3075 53.9357 36.2611C53.9487 36.2147 53.9789 36.1749 54.0201 36.1499L54.9001 35.6299C54.9188 35.6176 54.9399 35.6094 54.962 35.6057C54.9841 35.6021 55.0067 35.6031 55.0284 35.6088C55.0501 35.6144 55.0704 35.6246 55.0879 35.6385C55.1054 35.6525 55.1198 35.67 55.1301 35.6899C55.1523 35.7327 55.1574 35.7823 55.1444 35.8287C55.1314 35.8752 55.1013 35.9149 55.0601 35.9399L54.1701 36.4699L54.0901 36.4899ZM55.8601 35.4299C55.8305 35.4304 55.8014 35.4221 55.7764 35.4061C55.7515 35.3901 55.7319 35.3671 55.7201 35.3399C55.7007 35.2982 55.6972 35.2509 55.71 35.2068C55.7229 35.1627 55.7513 35.1247 55.7901 35.0999L56.6801 34.5699C56.6994 34.5579 56.7211 34.5502 56.7436 34.5473C56.7662 34.5443 56.7891 34.5463 56.8109 34.5529C56.8327 34.5595 56.8528 34.5707 56.8699 34.5857C56.887 34.6007 56.9007 34.6192 56.9101 34.6399C56.9285 34.6828 56.9306 34.7309 56.9158 34.7752C56.9011 34.8194 56.8705 34.8567 56.8301 34.8799L55.9501 35.4099C55.9215 35.3909 55.9003 35.3627 55.8901 35.3299L55.8601 35.4299ZM57.6301 34.4299C57.6007 34.4292 57.5721 34.4204 57.5474 34.4046C57.5228 34.3887 57.5029 34.3663 57.4901 34.3399C57.4701 34.2967 57.4662 34.2478 57.479 34.202C57.4918 34.1562 57.5206 34.1165 57.5601 34.0899L58.4501 33.5699C58.4688 33.5576 58.4899 33.5494 58.512 33.5457C58.5341 33.5421 58.5567 33.5431 58.5784 33.5488C58.6001 33.5544 58.6204 33.5646 58.6379 33.5785C58.6554 33.5925 58.6697 33.61 58.6801 33.6299C58.7 33.6731 58.704 33.722 58.6911 33.7678C58.6783 33.8137 58.6496 33.8534 58.6101 33.8799L57.7201 34.3999C57.702 34.3855 57.6872 34.3672 57.6769 34.3465C57.6665 34.3258 57.6608 34.3031 57.6601 34.2799L57.6301 34.4299Z" fill="#E0E0E0"/>
<path d="M59.44 33.2199C59.4101 33.2219 59.3804 33.2142 59.3552 33.198C59.33 33.1818 59.3107 33.1579 59.3 33.1299C59.2879 33.1098 59.2801 33.0874 59.2771 33.0641C59.274 33.0408 59.2759 33.0171 59.2824 32.9946C59.289 32.972 59.3002 32.9511 59.3153 32.9331C59.3304 32.9151 59.349 32.9004 59.37 32.8899L59.82 32.6199C59.8386 32.608 59.8595 32.6004 59.8814 32.5975C59.9032 32.5946 59.9255 32.5966 59.9465 32.6033C59.9675 32.6099 59.9867 32.6212 60.0029 32.6361C60.0191 32.6511 60.0318 32.6695 60.04 32.6899C60.0521 32.71 60.06 32.7324 60.063 32.7557C60.066 32.779 60.0642 32.8027 60.0576 32.8253C60.051 32.8478 60.0399 32.8687 60.0248 32.8868C60.0097 32.9048 59.9911 32.9195 59.97 32.9299L59.52 33.1999C59.497 33.2167 59.4683 33.2239 59.44 33.2199V33.2199Z" fill="#E0E0E0"/>
<path d="M12 68.2699C11.9707 68.2692 11.9421 68.2604 11.9174 68.2445C11.8927 68.2287 11.8729 68.2063 11.86 68.1799C11.8407 68.1382 11.8371 68.0909 11.85 68.0468C11.8629 68.0026 11.8913 67.9647 11.93 67.9399L12.38 67.6699C12.3988 67.6576 12.4199 67.6493 12.442 67.6457C12.4641 67.642 12.4867 67.6431 12.5084 67.6487C12.5301 67.6544 12.5503 67.6645 12.5678 67.6785C12.5854 67.6925 12.5997 67.71 12.61 67.7299C12.6323 67.7727 12.6374 67.8223 12.6244 67.8687C12.6114 67.9151 12.5812 67.9549 12.54 67.9799L12.09 68.2499L12 68.2699Z" fill="#E0E0E0"/>
<path d="M13.3301 67.4799C13.301 67.4782 13.2728 67.469 13.2483 67.4532C13.2238 67.4375 13.2037 67.4157 13.1901 67.3899C13.1701 67.3467 13.1661 67.2978 13.179 67.252C13.1918 67.2062 13.2205 67.1665 13.26 67.1399L14.15 66.6099C14.1686 66.598 14.1896 66.5904 14.2114 66.5875C14.2333 66.5846 14.2555 66.5866 14.2765 66.5933C14.2975 66.5999 14.3168 66.6112 14.3329 66.6262C14.3491 66.6411 14.3618 66.6595 14.37 66.6799C14.3822 66.7 14.39 66.7225 14.393 66.7458C14.3961 66.769 14.3942 66.7927 14.3876 66.8153C14.3811 66.8378 14.3699 66.8588 14.3548 66.8768C14.3397 66.8948 14.3211 66.9095 14.3001 66.9199L13.4201 67.4499C13.3938 67.4688 13.3624 67.4793 13.3301 67.4799V67.4799ZM15.1001 66.4199C15.0707 66.4192 15.0421 66.4104 15.0174 66.3946C14.9927 66.3787 14.9729 66.3563 14.9601 66.3299C14.9407 66.2882 14.9371 66.2409 14.95 66.1968C14.9629 66.1527 14.9913 66.1147 15.0301 66.0899L15.9201 65.5599C15.9586 65.5379 16.0043 65.5318 16.0473 65.543C16.0903 65.5543 16.1272 65.5819 16.15 65.6199C16.17 65.6631 16.174 65.712 16.1611 65.7578C16.1483 65.8037 16.1196 65.8434 16.0801 65.8699L15.1901 66.3999L15.1001 66.4199ZM16.8801 65.3599C16.849 65.3611 16.8183 65.3532 16.7917 65.3372C16.765 65.3213 16.7436 65.2979 16.73 65.2699C16.7116 65.2271 16.7095 65.1789 16.7243 65.1347C16.739 65.0904 16.7696 65.0531 16.81 65.0299L17.6901 64.4999C17.7094 64.4879 17.7311 64.4802 17.7536 64.4773C17.7762 64.4744 17.7991 64.4763 17.8209 64.4829C17.8427 64.4895 17.8628 64.5007 17.8799 64.5157C17.897 64.5307 17.9107 64.5492 17.9201 64.5699C17.9394 64.6116 17.943 64.6589 17.9301 64.7031C17.9172 64.7472 17.8888 64.7852 17.8501 64.8099L16.9601 65.3399C16.9493 65.3494 16.9364 65.3562 16.9225 65.3596C16.9086 65.3631 16.894 65.3632 16.8801 65.3599V65.3599ZM18.65 64.3599C18.6204 64.3604 18.5913 64.3521 18.5664 64.3361C18.5415 64.3201 18.5219 64.2971 18.51 64.2699C18.4878 64.2271 18.4827 64.1775 18.4957 64.1311C18.5087 64.0847 18.5388 64.0449 18.5801 64.0199L19.4701 63.4999C19.488 63.4877 19.5083 63.4796 19.5297 63.476C19.5511 63.4724 19.573 63.4735 19.5939 63.4792C19.6148 63.4849 19.6342 63.4951 19.6508 63.509C19.6674 63.523 19.6808 63.5403 19.6901 63.5599C19.7123 63.6027 19.7174 63.6523 19.7044 63.6987C19.6914 63.7452 19.6613 63.7849 19.62 63.8099L18.7401 64.3399L18.65 64.3599ZM20.4201 63.2999C20.3904 63.3004 20.3613 63.2921 20.3364 63.2761C20.3115 63.2601 20.2919 63.2371 20.2801 63.2099C20.2607 63.1682 20.2572 63.1209 20.27 63.0768C20.2829 63.0327 20.3113 62.9947 20.3501 62.9699L21.2401 62.4399C21.2594 62.4279 21.2811 62.4202 21.3036 62.4173C21.3262 62.4143 21.3491 62.4163 21.3709 62.4229C21.3927 62.4295 21.4128 62.4407 21.4299 62.4557C21.447 62.4707 21.4607 62.4892 21.4701 62.5099C21.4894 62.5516 21.493 62.5989 21.4801 62.6431C21.4672 62.6872 21.4388 62.7252 21.4 62.7499L20.51 63.2799C20.4776 63.2799 20.446 63.2694 20.4201 63.2499V63.2999ZM22.1901 62.2999C22.1607 62.2992 22.1321 62.2904 22.1074 62.2746C22.0827 62.2587 22.0629 62.2363 22.0501 62.2099C22.0301 62.1667 22.0261 62.1178 22.039 62.072C22.0518 62.0262 22.0805 61.9865 22.12 61.9599L23.01 61.4399C23.0288 61.4276 23.0499 61.4194 23.072 61.4157C23.0941 61.4121 23.1167 61.4131 23.1384 61.4188C23.1601 61.4244 23.1803 61.4346 23.1979 61.4486C23.2154 61.4625 23.2297 61.48 23.2401 61.4999C23.26 61.5431 23.264 61.592 23.2511 61.6378C23.2383 61.6837 23.2096 61.7234 23.1701 61.7499L22.2801 62.2699C22.2425 62.2584 22.2104 62.2335 22.1901 62.1999V62.2999ZM24.0001 61.1399C23.9702 61.1419 23.9404 61.1342 23.9152 61.118C23.89 61.1018 23.8707 61.0779 23.8601 61.0499C23.8479 61.0298 23.8401 61.0074 23.8371 60.9841C23.834 60.9608 23.8359 60.9371 23.8425 60.9146C23.849 60.892 23.8602 60.8711 23.8753 60.8531C23.8904 60.8351 23.909 60.8204 23.93 60.8099L24.8101 60.2799C24.8294 60.2679 24.8511 60.2602 24.8736 60.2573C24.8962 60.2543 24.9191 60.2562 24.9409 60.2629C24.9627 60.2695 24.9828 60.2807 24.9999 60.2957C25.017 60.3107 25.0307 60.3292 25.04 60.3499C25.0617 60.3912 25.0666 60.4393 25.0535 60.4841C25.0405 60.5288 25.0105 60.5668 24.9701 60.5899L24.0801 61.1199C24.057 61.1367 24.0283 61.1439 24.0001 61.1399V61.1399ZM25.7701 60.1399C25.741 60.1382 25.7128 60.129 25.6883 60.1132C25.6638 60.0975 25.6437 60.0757 25.6301 60.0499C25.6101 60.0067 25.6061 59.9579 25.619 59.912C25.6318 59.8662 25.6605 59.8265 25.7 59.7999L26.59 59.2699C26.6303 59.2512 26.676 59.248 26.7185 59.2609C26.7609 59.2738 26.7971 59.302 26.8201 59.3399C26.8414 59.3839 26.8451 59.4344 26.8302 59.481C26.8153 59.5275 26.783 59.5665 26.7401 59.5899L25.8601 60.1099C25.819 60.1193 25.7759 60.1121 25.7401 60.0899L25.7701 60.1399ZM27.51 58.9999C27.4807 58.9992 27.4521 58.9904 27.4274 58.9746C27.4027 58.9587 27.3829 58.9363 27.37 58.9099C27.3507 58.8682 27.3472 58.8209 27.36 58.7768C27.3729 58.7327 27.4013 58.6947 27.4401 58.6699L28.3301 58.1399C28.3494 58.1279 28.3711 58.1202 28.3936 58.1173C28.4162 58.1144 28.4391 58.1163 28.4609 58.1229C28.4827 58.1295 28.5028 58.1407 28.5199 58.1557C28.537 58.1707 28.5507 58.1892 28.5601 58.2099C28.5794 58.2516 28.583 58.2989 28.5701 58.3431C28.5572 58.3872 28.5288 58.4252 28.4901 58.4499L27.6001 58.9799C27.5729 58.9959 27.5414 59.0029 27.51 58.9999V58.9999ZM29.29 57.9999C29.2607 57.9992 29.2321 57.9904 29.2074 57.9746C29.1827 57.9587 29.1629 57.9363 29.15 57.9099C29.1377 57.889 29.1298 57.8659 29.1266 57.8418C29.1235 57.8178 29.1253 57.7934 29.1318 57.77C29.1383 57.7467 29.1495 57.7249 29.1647 57.706C29.1799 57.687 29.1987 57.6714 29.2201 57.6599L30.1001 57.1299C30.1194 57.1179 30.1411 57.1102 30.1636 57.1073C30.1862 57.1043 30.2091 57.1063 30.2309 57.1129C30.2527 57.1195 30.2728 57.1307 30.2899 57.1457C30.307 57.1607 30.3207 57.1792 30.3301 57.1999C30.35 57.2431 30.354 57.292 30.3411 57.3378C30.3283 57.3836 30.2995 57.4234 30.26 57.4499L29.37 57.9699C29.3594 57.98 29.3468 57.9879 29.3331 57.993C29.3194 57.9982 29.3047 58.0005 29.29 57.9999V57.9999ZM31.06 56.9399C31.0304 56.9404 31.0013 56.9321 30.9764 56.9161C30.9515 56.9001 30.9319 56.8771 30.92 56.8499C30.8984 56.8086 30.8935 56.7606 30.9066 56.7158C30.9196 56.671 30.9496 56.6331 30.9901 56.6099L31.8801 56.0799C31.898 56.0677 31.9183 56.0596 31.9397 56.056C31.9611 56.0524 31.983 56.0535 32.0039 56.0592C32.0248 56.0649 32.0442 56.0751 32.0608 56.089C32.0774 56.103 32.0908 56.1203 32.1001 56.1399C32.1124 56.1608 32.1203 56.184 32.1235 56.208C32.1266 56.2321 32.1248 56.2565 32.1183 56.2798C32.1118 56.3032 32.1006 56.325 32.0854 56.3439C32.0702 56.3628 32.0514 56.3785 32.0301 56.3899L31.15 56.9199L31.06 56.9399ZM32.8301 55.9399C32.8014 55.9365 32.7739 55.9267 32.7497 55.9111C32.7254 55.8955 32.705 55.8746 32.6901 55.8499C32.6701 55.8067 32.6661 55.7578 32.679 55.712C32.6918 55.6662 32.7205 55.6265 32.76 55.5999L33.65 55.0699C33.6694 55.0579 33.6911 55.0502 33.7136 55.0473C33.7362 55.0444 33.7591 55.0463 33.7809 55.0529C33.8027 55.0595 33.8228 55.0707 33.8399 55.0857C33.857 55.1007 33.8707 55.1192 33.8801 55.1399C33.8994 55.1816 33.903 55.2289 33.8901 55.2731C33.8772 55.3172 33.8488 55.3552 33.81 55.3799L32.92 55.9099C32.8866 55.9064 32.8551 55.8924 32.8301 55.8699V55.9399ZM34.6001 54.8799C34.5707 54.8792 34.5421 54.8704 34.5174 54.8546C34.4927 54.8387 34.4729 54.8163 34.4601 54.7899C34.4407 54.7482 34.4371 54.7009 34.45 54.6568C34.4629 54.6127 34.4913 54.5747 34.5301 54.5499L35.42 54.0199C35.4388 54.0076 35.4599 53.9994 35.482 53.9957C35.5041 53.9921 35.5267 53.9931 35.5484 53.9988C35.5701 54.0044 35.5903 54.0146 35.6078 54.0285C35.6254 54.0425 35.6397 54.06 35.65 54.0799C35.67 54.1231 35.674 54.172 35.6611 54.2178C35.6483 54.2637 35.6196 54.3034 35.5801 54.3299L34.6901 54.8599L34.6001 54.8799ZM36.3801 53.8199C36.3504 53.8204 36.3213 53.8121 36.2964 53.7961C36.2715 53.7801 36.2519 53.7571 36.2401 53.7299C36.2184 53.6887 36.2135 53.6406 36.2266 53.5958C36.2396 53.551 36.2696 53.5131 36.31 53.4899L37.1901 52.9599C37.2094 52.9479 37.2311 52.9402 37.2536 52.9373C37.2762 52.9344 37.2991 52.9363 37.3209 52.9429C37.3427 52.9495 37.3628 52.9607 37.3799 52.9757C37.397 52.9907 37.4107 53.0092 37.42 53.0299C37.4417 53.0712 37.4466 53.1193 37.4335 53.1641C37.4205 53.2088 37.3905 53.2468 37.3501 53.2699L36.4601 53.7999C36.4438 53.7981 36.4283 53.7926 36.4144 53.7839C36.4006 53.7753 36.3888 53.7637 36.3801 53.7499V53.8199ZM38.15 52.8199C38.1204 52.8204 38.0913 52.8121 38.0664 52.7961C38.0415 52.7801 38.0219 52.7571 38.01 52.7299C37.9901 52.6867 37.9861 52.6379 37.999 52.592C38.0118 52.5462 38.0406 52.5065 38.0801 52.4799L38.9701 51.9599C39.0086 51.9379 39.0543 51.9318 39.0973 51.9431C39.1403 51.9543 39.1772 51.9819 39.2 52.0199C39.2214 52.0639 39.2251 52.1144 39.2102 52.161C39.1953 52.2075 39.163 52.2465 39.12 52.2699L38.2401 52.7999L38.15 52.8199ZM39.92 51.7599C39.8907 51.7592 39.8621 51.7504 39.8374 51.7346C39.8127 51.7187 39.7929 51.6963 39.7801 51.6699C39.7607 51.6282 39.7572 51.5809 39.77 51.5368C39.7829 51.4927 39.8113 51.4547 39.8501 51.4299L40.7401 50.8999C40.7594 50.8879 40.7811 50.8802 40.8036 50.8773C40.8262 50.8743 40.8491 50.8763 40.8709 50.8829C40.8927 50.8895 40.9128 50.9007 40.9299 50.9157C40.947 50.9307 40.9607 50.9492 40.9701 50.9699C40.9894 51.0116 40.9929 51.0589 40.9801 51.1031C40.9672 51.1472 40.9388 51.1852 40.9 51.2099L40.01 51.7399C39.9883 51.7314 39.9688 51.7179 39.9532 51.7006C39.9376 51.6832 39.9262 51.6625 39.92 51.6399V51.7599ZM41.7 50.7599C41.6707 50.7592 41.6421 50.7504 41.6174 50.7346C41.5927 50.7187 41.5729 50.6963 41.56 50.6699C41.5477 50.649 41.5398 50.6259 41.5366 50.6018C41.5335 50.5778 41.5353 50.5534 41.5418 50.53C41.5483 50.5067 41.5595 50.4849 41.5747 50.466C41.5898 50.447 41.6087 50.4314 41.6301 50.4199L42.51 49.8999C42.5288 49.8876 42.5499 49.8794 42.572 49.8757C42.5941 49.8721 42.6167 49.8731 42.6384 49.8788C42.6601 49.8844 42.6803 49.8946 42.6979 49.9086C42.7154 49.9225 42.7297 49.94 42.7401 49.9599C42.76 50.0031 42.764 50.052 42.7511 50.0978C42.7383 50.1437 42.7095 50.1834 42.67 50.2099L41.7801 50.7299C41.7653 50.7265 41.7514 50.7201 41.7393 50.711C41.7272 50.702 41.717 50.6905 41.7095 50.6774C41.702 50.6642 41.6973 50.6497 41.6957 50.6346C41.694 50.6196 41.6955 50.6044 41.7 50.5899V50.7599ZM43.4701 49.6999C43.4404 49.7004 43.4113 49.6921 43.3864 49.6761C43.3615 49.6601 43.3419 49.6371 43.3301 49.6099C43.3084 49.5686 43.3035 49.5206 43.3166 49.4758C43.3297 49.431 43.3596 49.3931 43.4 49.3699L44.29 48.8399C44.3086 48.828 44.3296 48.8204 44.3514 48.8175C44.3733 48.8146 44.3955 48.8166 44.4165 48.8233C44.4375 48.83 44.4568 48.8412 44.4729 48.8562C44.4891 48.8711 44.5018 48.8895 44.51 48.9099C44.5222 48.9301 44.53 48.9525 44.533 48.9758C44.5361 48.9991 44.5342 49.0227 44.5276 49.0453C44.5211 49.0678 44.5099 49.0888 44.4948 49.1068C44.4797 49.1248 44.4611 49.1395 44.4401 49.1499L43.56 49.6799C43.5312 49.6675 43.5071 49.6463 43.4909 49.6194C43.4748 49.5925 43.4675 49.5612 43.4701 49.5299V49.6999ZM45.2401 48.6999C45.211 48.6982 45.1828 48.689 45.1583 48.6732C45.1338 48.6575 45.1137 48.6357 45.1001 48.6099C45.0801 48.5667 45.0761 48.5178 45.089 48.472C45.1018 48.4262 45.1305 48.3865 45.17 48.3599L46.0601 47.8299C46.0998 47.8087 46.1464 47.8042 46.1896 47.8173C46.2327 47.8304 46.2688 47.8601 46.29 47.8999C46.31 47.9431 46.314 47.992 46.3011 48.0378C46.2883 48.0837 46.2596 48.1234 46.2201 48.1499L45.3301 48.6699C45.2946 48.6545 45.266 48.6267 45.2495 48.5918C45.2329 48.5569 45.2296 48.5171 45.2401 48.4799V48.6999ZM47.0001 47.4199C46.9707 47.4192 46.9421 47.4104 46.9174 47.3946C46.8927 47.3787 46.8729 47.3563 46.8601 47.3299C46.8416 47.2871 46.8395 47.2389 46.8543 47.1947C46.8691 47.1504 46.8996 47.1131 46.9401 47.0899L47.8201 46.5599C47.8394 46.5479 47.8611 46.5402 47.8836 46.5373C47.9062 46.5343 47.9291 46.5363 47.9509 46.5429C47.9727 46.5495 47.9928 46.5607 48.0099 46.5757C48.027 46.5907 48.0407 46.6092 48.0501 46.6299C48.0694 46.6716 48.073 46.7189 48.0601 46.7631C48.0472 46.8072 48.0188 46.8452 47.98 46.8699L47.09 47.3999L47.0001 47.4199ZM48.7801 46.4199C48.7514 46.4165 48.7239 46.4067 48.6997 46.3911C48.6754 46.3755 48.655 46.3546 48.6401 46.3299C48.6178 46.2872 48.6127 46.2375 48.6257 46.1911C48.6387 46.1447 48.6689 46.1049 48.7101 46.0799L49.6001 45.5499C49.6186 45.538 49.6396 45.5304 49.6614 45.5275C49.6833 45.5246 49.7055 45.5266 49.7265 45.5333C49.7475 45.54 49.7668 45.5512 49.7829 45.5662C49.7991 45.5811 49.8118 45.5995 49.8201 45.6199C49.8418 45.6612 49.8466 45.7093 49.8335 45.7541C49.8205 45.7988 49.7905 45.8368 49.7501 45.8599L48.87 46.3899C48.8421 46.3904 48.8145 46.3835 48.79 46.3699L48.7801 46.4199ZM50.5501 45.3599C50.5204 45.3604 50.4913 45.3521 50.4664 45.3361C50.4415 45.3201 50.4219 45.2971 50.4101 45.2699C50.3907 45.2282 50.3871 45.1809 50.4 45.1368C50.4129 45.0927 50.4413 45.0547 50.48 45.0299L51.37 44.4999C51.4086 44.4779 51.4543 44.4718 51.4973 44.4831C51.5403 44.4943 51.5772 44.5219 51.6001 44.5599C51.6214 44.6039 51.6251 44.6544 51.6102 44.701C51.5953 44.7475 51.563 44.7865 51.5201 44.8099L50.6401 45.3399L50.5501 45.3599ZM52.3201 44.2999C52.2907 44.2992 52.2621 44.2904 52.2374 44.2746C52.2127 44.2587 52.1929 44.2363 52.18 44.2099C52.1607 44.1682 52.1571 44.1209 52.17 44.0768C52.1829 44.0327 52.2113 43.9947 52.2501 43.9699L53.1401 43.4399C53.1594 43.4279 53.1811 43.4202 53.2036 43.4173C53.2262 43.4143 53.2491 43.4163 53.2709 43.4229C53.2927 43.4295 53.3128 43.4407 53.3299 43.4557C53.347 43.4707 53.3607 43.4892 53.37 43.5099C53.3894 43.5516 53.393 43.5989 53.3801 43.6431C53.3672 43.6872 53.3388 43.7252 53.3001 43.7499L52.4101 44.2799C52.3953 44.2811 52.3805 44.2791 52.3667 44.2739C52.3529 44.2687 52.3403 44.2605 52.3301 44.2499L52.3201 44.2999ZM54.1001 43.2999C54.0702 43.3019 54.0404 43.2942 54.0152 43.278C53.99 43.2618 53.9707 43.2379 53.9601 43.2099C53.9478 43.189 53.9398 43.1659 53.9367 43.1418C53.9335 43.1178 53.9353 43.0934 53.9418 43.07C53.9483 43.0467 53.9595 43.0249 53.9747 43.006C53.9899 42.987 54.0087 42.9714 54.0301 42.9599L54.9101 42.4399C54.9288 42.4276 54.9499 42.4194 54.972 42.4157C54.9941 42.4121 55.0167 42.4131 55.0384 42.4188C55.0601 42.4244 55.0803 42.4346 55.0978 42.4485C55.1154 42.4625 55.1297 42.48 55.1401 42.4999C55.1623 42.5427 55.1674 42.5923 55.1544 42.6387C55.1414 42.6852 55.1113 42.7249 55.0701 42.7499L54.18 43.2799L54.1001 43.2999ZM55.87 42.2399C55.8404 42.2404 55.8113 42.2321 55.7864 42.2161C55.7615 42.2001 55.7419 42.1771 55.73 42.1499C55.7107 42.1082 55.7072 42.0609 55.72 42.0168C55.7329 41.9727 55.7613 41.9347 55.8001 41.9099L56.6901 41.3799C56.7086 41.368 56.7296 41.3604 56.7514 41.3575C56.7733 41.3546 56.7955 41.3566 56.8165 41.3633C56.8375 41.3699 56.8568 41.3812 56.8729 41.3962C56.8891 41.4111 56.9018 41.4295 56.9101 41.4499C56.9222 41.47 56.93 41.4925 56.933 41.5158C56.936 41.539 56.9342 41.5627 56.9277 41.5853C56.9211 41.6078 56.9099 41.6288 56.8948 41.6468C56.8797 41.6648 56.8611 41.6795 56.84 41.6899L55.9601 42.2199C55.924 42.2047 55.8953 42.176 55.8801 42.1399L55.87 42.2399ZM57.6401 41.2399C57.6107 41.2392 57.5821 41.2304 57.5574 41.2146C57.5327 41.1987 57.5129 41.1763 57.5001 41.1499C57.4801 41.1067 57.4761 41.0578 57.489 41.012C57.5018 40.9662 57.5306 40.9265 57.5701 40.8999L58.4601 40.3799C58.4986 40.3579 58.5443 40.3518 58.5873 40.363C58.6303 40.3743 58.6672 40.4019 58.6901 40.4399C58.71 40.4831 58.714 40.532 58.7011 40.5778C58.6883 40.6236 58.6595 40.6634 58.62 40.6899L57.73 41.2099L57.6401 41.2399Z" fill="#E0E0E0"/>
<path d="M59.43 39.9999C59.399 40.0011 59.3683 39.9932 59.3416 39.9773C59.315 39.9613 59.2936 39.9379 59.28 39.9099C59.2616 39.8671 59.2595 39.819 59.2743 39.7747C59.289 39.7304 59.3196 39.6931 59.36 39.6699L59.81 39.3999C59.8286 39.388 59.8495 39.3804 59.8714 39.3775C59.8932 39.3746 59.9155 39.3766 59.9365 39.3833C59.9575 39.39 59.9767 39.4012 59.9929 39.4162C60.0091 39.4312 60.0218 39.4495 60.03 39.4699C60.0517 39.5112 60.0565 39.5593 60.0435 39.6041C60.0304 39.6488 60.0005 39.6868 59.96 39.7099L59.51 39.9799C59.4866 39.9958 59.4582 40.0029 59.43 39.9999V39.9999Z" fill="#E0E0E0"/>
<path opacity="0.2" d="M12.34 68.1L16.51 61.43L21.85 60.75L26.27 54.73L31.23 53.75L35.96 44.31L40.82 48.98L45.98 35.62L50.79 38.97L55.41 21.99L59.91 25.97L59.87 46.4L12.41 74.71L12.34 68.1Z" fill="#0082F4"/>
<path d="M16.4801 72.3899C16.4394 72.3873 16.4012 72.3694 16.3733 72.3396C16.3455 72.3099 16.33 72.2706 16.3301 72.2299V71.5399C16.33 71.4965 16.3465 71.4547 16.3763 71.4231C16.406 71.3915 16.4467 71.3724 16.4901 71.3699C16.5325 71.3699 16.5732 71.3867 16.6032 71.4167C16.6332 71.4468 16.6501 71.4874 16.6501 71.5299V72.2199C16.6501 72.2633 16.6336 72.3051 16.6039 72.3367C16.5741 72.3683 16.5334 72.3873 16.4901 72.3899H16.4801ZM16.4801 71.0199C16.4376 71.0199 16.3969 71.003 16.3669 70.973C16.3369 70.943 16.3201 70.9023 16.3201 70.8599V70.1699C16.3198 70.1254 16.336 70.0824 16.3655 70.0492C16.3951 70.016 16.4359 69.9948 16.4801 69.9899C16.5019 69.9898 16.5236 69.9943 16.5437 70.0029C16.5638 70.0116 16.5819 70.0243 16.5969 70.0402C16.6119 70.0562 16.6235 70.075 16.6309 70.0956C16.6383 70.1162 16.6414 70.1381 16.6401 70.1599V70.8399C16.6401 70.8859 16.6226 70.9303 16.5909 70.9638C16.5593 70.9972 16.5161 71.0173 16.4701 71.0199H16.4801ZM16.4801 69.6499C16.4586 69.6501 16.4373 69.6456 16.4176 69.6369C16.398 69.6281 16.3805 69.6153 16.3662 69.5991C16.352 69.583 16.3414 69.564 16.3352 69.5434C16.329 69.5229 16.3272 69.5012 16.3301 69.4799V68.7999C16.3298 68.7554 16.346 68.7124 16.3755 68.6792C16.4051 68.6459 16.4459 68.6248 16.4901 68.6199C16.512 68.6198 16.5336 68.6243 16.5537 68.6329C16.5738 68.6416 16.5919 68.6543 16.6069 68.6702C16.6219 68.6862 16.6334 68.705 16.6409 68.7256C16.6483 68.7462 16.6514 68.768 16.6501 68.7899V69.4699C16.6514 69.4922 16.6483 69.5146 16.641 69.5357C16.6337 69.5569 16.6223 69.5764 16.6074 69.5931C16.5926 69.6098 16.5746 69.6235 16.5544 69.6332C16.5343 69.6429 16.5124 69.6486 16.4901 69.6499H16.4801ZM16.4801 68.2799C16.4385 68.275 16.4003 68.2549 16.3726 68.2235C16.3449 68.1922 16.3298 68.1517 16.3301 68.1099V67.4299C16.3287 67.4076 16.3318 67.3852 16.3391 67.364C16.3464 67.3429 16.3578 67.3234 16.3727 67.3067C16.3876 67.2899 16.4056 67.2763 16.4257 67.2666C16.4459 67.2568 16.4677 67.2512 16.4901 67.2499C16.5325 67.2499 16.5732 67.2667 16.6032 67.2967C16.6332 67.3268 16.6501 67.3675 16.6501 67.4099V68.0999C16.6503 68.1444 16.6341 68.1874 16.6046 68.2206C16.5751 68.2538 16.5343 68.2749 16.4901 68.2799H16.4801ZM16.4801 66.9099C16.4385 66.905 16.4003 66.8849 16.3726 66.8535C16.3449 66.8222 16.3298 66.7817 16.3301 66.7399V66.0599C16.3287 66.0375 16.3318 66.0152 16.3391 65.994C16.3464 65.9729 16.3578 65.9534 16.3727 65.9367C16.3876 65.9199 16.4056 65.9063 16.4257 65.8966C16.4459 65.8868 16.4677 65.8812 16.4901 65.8799C16.5115 65.8784 16.5329 65.8815 16.553 65.889C16.5731 65.8966 16.5913 65.9083 16.6065 65.9235C16.6217 65.9386 16.6334 65.9569 16.6409 65.9769C16.6484 65.997 16.6515 66.0185 16.6501 66.0399V66.7299C16.6501 66.7733 16.6336 66.8151 16.6039 66.8467C16.5741 66.8783 16.5334 66.8973 16.4901 66.8999L16.4801 66.9099ZM16.4801 65.5299C16.4376 65.5299 16.3969 65.513 16.3669 65.483C16.3369 65.453 16.3201 65.4123 16.3201 65.3699V64.6799C16.3225 64.6356 16.3411 64.5937 16.3725 64.5623C16.4039 64.531 16.4458 64.5123 16.4901 64.5099C16.5325 64.5099 16.5732 64.5267 16.6032 64.5567C16.6332 64.5868 16.6501 64.6274 16.6501 64.6699V65.3599C16.6501 65.4033 16.6336 65.4451 16.6039 65.4767C16.5741 65.5083 16.5334 65.5273 16.4901 65.5299H16.4801ZM16.4801 64.1599C16.4595 64.1599 16.4391 64.1557 16.4203 64.1476C16.4014 64.1394 16.3844 64.1275 16.3703 64.1125C16.3562 64.0975 16.3454 64.0797 16.3385 64.0604C16.3316 64.041 16.3287 64.0204 16.3301 63.9999V63.3099C16.3298 63.2654 16.346 63.2224 16.3755 63.1892C16.4051 63.1559 16.4459 63.1348 16.4901 63.1299C16.5334 63.1324 16.5741 63.1515 16.6039 63.1831C16.6336 63.2147 16.6501 63.2565 16.6501 63.2999V63.9999C16.6503 64.0444 16.6341 64.0873 16.6046 64.1206C16.5751 64.1538 16.5343 64.1749 16.4901 64.1799L16.4801 64.1599ZM16.4801 62.7899C16.4595 62.7899 16.4391 62.7857 16.4203 62.7776C16.4014 62.7694 16.3844 62.7575 16.3703 62.7425C16.3562 62.7275 16.3454 62.7097 16.3385 62.6904C16.3316 62.671 16.3287 62.6504 16.3301 62.6299V61.9399C16.3298 61.8954 16.346 61.8524 16.3755 61.8192C16.4051 61.7859 16.4459 61.7648 16.4901 61.7599C16.5334 61.7624 16.5741 61.7815 16.6039 61.8131C16.6336 61.8447 16.6501 61.8865 16.6501 61.9299V62.6099C16.6514 62.6322 16.6483 62.6546 16.641 62.6757C16.6337 62.6969 16.6223 62.7164 16.6074 62.7331C16.5926 62.7498 16.5746 62.7634 16.5544 62.7732C16.5343 62.7829 16.5124 62.7886 16.4901 62.7899H16.4801Z" fill="#FAFAFA"/>
<path d="M26.2 66.61C26.1585 66.605 26.1203 66.585 26.0926 66.5536C26.0649 66.5222 26.0498 66.4818 26.0501 66.44V65.87C26.0518 65.8261 26.0687 65.7842 26.0979 65.7514C26.1271 65.7186 26.1667 65.6969 26.2101 65.69C26.2319 65.6899 26.2536 65.6944 26.2737 65.703C26.2938 65.7117 26.3119 65.7244 26.3269 65.7403C26.3419 65.7562 26.3534 65.7751 26.3609 65.7956C26.3683 65.8162 26.3714 65.8381 26.37 65.86V66.43C26.3703 66.4744 26.3541 66.5174 26.3246 66.5507C26.295 66.5839 26.2542 66.605 26.2101 66.61H26.2ZM26.2 65.46C26.1576 65.46 26.1169 65.4431 26.0869 65.4131C26.0569 65.3831 26.04 65.3424 26.04 65.3V64.72C26.04 64.6765 26.0565 64.6348 26.0863 64.6031C26.116 64.5715 26.1567 64.5525 26.2 64.55C26.2425 64.55 26.2832 64.5668 26.3132 64.5968C26.3432 64.6268 26.36 64.6675 26.36 64.71V65.29C26.3601 65.3334 26.3436 65.3752 26.3138 65.4068C26.2841 65.4384 26.2434 65.4574 26.2 65.46V65.46ZM26.2 64.32C26.179 64.3187 26.1585 64.3133 26.1395 64.304C26.1206 64.2948 26.1037 64.2819 26.0897 64.2661C26.0758 64.2503 26.0651 64.2319 26.0583 64.212C26.0515 64.1921 26.0487 64.171 26.0501 64.15V63.58C26.0498 63.5355 26.066 63.4925 26.0955 63.4593C26.1251 63.426 26.1659 63.4049 26.2101 63.4C26.2534 63.4025 26.2941 63.4215 26.3238 63.4531C26.3536 63.4848 26.3701 63.5265 26.37 63.57V64.14C26.3683 64.1838 26.3514 64.2257 26.3222 64.2585C26.293 64.2914 26.2534 64.3131 26.2101 64.32H26.2ZM26.2 63.17C26.1795 63.17 26.1591 63.1658 26.1402 63.1577C26.1213 63.1495 26.1044 63.1375 26.0903 63.1225C26.0762 63.1075 26.0654 63.0898 26.0585 63.0704C26.0515 63.0511 26.0487 63.0305 26.0501 63.01V62.44C26.0487 62.4176 26.0518 62.3952 26.0591 62.3741C26.0664 62.3529 26.0778 62.3335 26.0927 62.3167C26.1075 62.3 26.1256 62.2864 26.1457 62.2766C26.1659 62.2669 26.1877 62.2612 26.2101 62.26C26.2525 62.26 26.2932 62.2768 26.3232 62.3068C26.3532 62.3368 26.37 62.3775 26.37 62.42V63C26.3701 63.0434 26.3536 63.0852 26.3238 63.1168C26.2941 63.1484 26.2534 63.1674 26.2101 63.17H26.2ZM26.2 62.03C26.179 62.0287 26.1585 62.0233 26.1395 62.014C26.1206 62.0048 26.1037 61.9919 26.0897 61.9761C26.0758 61.9603 26.0651 61.9419 26.0583 61.922C26.0515 61.9021 26.0487 61.881 26.0501 61.86V61.29C26.05 61.2465 26.0665 61.2048 26.0963 61.1731C26.126 61.1415 26.1667 61.1225 26.2101 61.12C26.2525 61.12 26.2932 61.1368 26.3232 61.1668C26.3532 61.1968 26.37 61.2375 26.37 61.28V61.85C26.3703 61.8944 26.3541 61.9374 26.3246 61.9707C26.295 62.0039 26.2542 62.025 26.2101 62.03H26.2ZM26.2 60.88C26.1594 60.8774 26.1212 60.8594 26.0933 60.8297C26.0655 60.8 26.05 60.7607 26.0501 60.72V60.15C26.0498 60.1055 26.066 60.0625 26.0955 60.0293C26.1251 59.996 26.1659 59.9749 26.2101 59.97C26.2534 59.9725 26.2941 59.9915 26.3238 60.0231C26.3536 60.0548 26.3701 60.0965 26.37 60.14V60.71C26.3701 60.7534 26.3536 60.7952 26.3238 60.8268C26.2941 60.8584 26.2534 60.8774 26.2101 60.88H26.2ZM26.2 59.74C26.1576 59.74 26.1169 59.7231 26.0869 59.6931C26.0569 59.6631 26.04 59.6224 26.04 59.58V59C26.0424 58.9556 26.0611 58.9138 26.0925 58.8824C26.1239 58.851 26.1657 58.8324 26.2101 58.83C26.2525 58.83 26.2932 58.8468 26.3232 58.8768C26.3532 58.9068 26.37 58.9475 26.37 58.99V59.56C26.3714 59.5823 26.3683 59.6047 26.361 59.6258C26.3537 59.647 26.3423 59.6665 26.3274 59.6832C26.3126 59.6999 26.2945 59.7135 26.2744 59.7233C26.2542 59.733 26.2324 59.7387 26.2101 59.74H26.2ZM26.2 58.6C26.1567 58.5974 26.116 58.5784 26.0863 58.5468C26.0565 58.5152 26.04 58.4734 26.04 58.43V57.86C26.0398 57.8155 26.056 57.7725 26.0855 57.7393C26.1151 57.706 26.1559 57.6849 26.2 57.68C26.2219 57.6799 26.2436 57.6844 26.2637 57.693C26.2838 57.7017 26.3019 57.7144 26.3169 57.7303C26.3319 57.7462 26.3434 57.7651 26.3509 57.7857C26.3583 57.8062 26.3614 57.8281 26.36 57.85V58.42C26.3583 58.4638 26.3414 58.5057 26.3122 58.5385C26.283 58.5714 26.2434 58.5931 26.2 58.6V58.6ZM26.2 57.45C26.1795 57.45 26.1591 57.4458 26.1402 57.4377C26.1213 57.4295 26.1044 57.4175 26.0903 57.4025C26.0762 57.3875 26.0654 57.3698 26.0585 57.3504C26.0515 57.3311 26.0487 57.3105 26.0501 57.29V56.72C26.0487 56.6976 26.0518 56.6752 26.0591 56.6541C26.0664 56.633 26.0778 56.6135 26.0927 56.5967C26.1075 56.58 26.1256 56.5664 26.1457 56.5566C26.1659 56.5469 26.1877 56.5412 26.2101 56.54C26.2525 56.54 26.2932 56.5568 26.3232 56.5868C26.3532 56.6168 26.37 56.6575 26.37 56.7V57.28C26.3701 57.3234 26.3536 57.3652 26.3238 57.3968C26.2941 57.4284 26.2534 57.4474 26.2101 57.45H26.2ZM26.2 56.31C26.1585 56.305 26.1203 56.285 26.0926 56.2536C26.0649 56.2222 26.0498 56.1818 26.0501 56.14V55.57C26.0498 55.5255 26.066 55.4825 26.0955 55.4493C26.1251 55.416 26.1659 55.3949 26.2101 55.39C26.2319 55.3899 26.2536 55.3944 26.2737 55.403C26.2938 55.4117 26.3119 55.4244 26.3269 55.4403C26.3419 55.4562 26.3534 55.4751 26.3609 55.4957C26.3683 55.5162 26.3714 55.5381 26.37 55.56V56.13C26.3703 56.1744 26.3541 56.2174 26.3246 56.2507C26.295 56.2839 26.2542 56.305 26.2101 56.31H26.2ZM26.2 55.16C26.1594 55.1574 26.1212 55.1394 26.0933 55.1097C26.0655 55.08 26.05 55.0407 26.0501 55V54.75C26.05 54.7065 26.0665 54.6648 26.0963 54.6331C26.126 54.6015 26.1667 54.5825 26.2101 54.58C26.2525 54.58 26.2932 54.5968 26.3232 54.6268C26.3532 54.6568 26.37 54.6975 26.37 54.74V55C26.3701 55.0434 26.3536 55.0852 26.3238 55.1168C26.2941 55.1484 26.2534 55.1674 26.2101 55.17L26.2 55.16Z" fill="#FAFAFA"/>
<path d="M35.9201 60.82C35.8991 60.8187 35.8785 60.8133 35.8596 60.8041C35.8406 60.7948 35.8237 60.7819 35.8098 60.7661C35.7958 60.7503 35.7852 60.732 35.7783 60.712C35.7715 60.6921 35.7687 60.671 35.7701 60.65V59.72C35.77 59.6766 35.7865 59.6348 35.8163 59.6032C35.846 59.5716 35.8867 59.5525 35.9301 59.55C35.9515 59.5485 35.9729 59.5516 35.993 59.5592C36.0131 59.5667 36.0313 59.5784 36.0465 59.5936C36.0617 59.6087 36.0734 59.627 36.0809 59.6471C36.0884 59.6671 36.0916 59.6886 36.0901 59.71V60.64C36.0914 60.6623 36.0884 60.6847 36.081 60.7058C36.0737 60.727 36.0623 60.7465 36.0474 60.7632C36.0326 60.7799 36.0146 60.7936 35.9944 60.8033C35.9743 60.813 35.9524 60.8187 35.9301 60.82H35.9201ZM35.9201 58.95C35.8776 58.95 35.837 58.9331 35.807 58.9031C35.7769 58.8731 35.7601 58.8324 35.7601 58.79V57.86C35.7587 57.8377 35.7618 57.8153 35.7691 57.7941C35.7764 57.773 35.7878 57.7535 35.8027 57.7368C35.8176 57.72 35.8356 57.7064 35.8557 57.6967C35.8759 57.6869 35.8977 57.6813 35.9201 57.68C35.9634 57.6825 36.0041 57.7016 36.0339 57.7332C36.0636 57.7648 36.0802 57.8066 36.0801 57.85V58.78C36.0777 58.8243 36.059 58.8662 36.0276 58.8975C35.9962 58.9289 35.9544 58.9476 35.9101 58.95H35.9201ZM35.9201 57.09C35.8986 57.0902 35.8773 57.0858 35.8577 57.077C35.838 57.0682 35.8205 57.0554 35.8063 57.0392C35.792 57.0231 35.7814 57.0041 35.7752 56.9836C35.769 56.963 35.7672 56.9413 35.7701 56.92V56C35.77 55.9566 35.7865 55.9148 35.8163 55.8832C35.846 55.8516 35.8867 55.8325 35.9301 55.83C35.9725 55.83 36.0132 55.8468 36.0432 55.8769C36.0732 55.9069 36.0901 55.9476 36.0901 55.99V56.92C36.0914 56.9423 36.0884 56.9647 36.081 56.9858C36.0737 57.007 36.0623 57.0265 36.0474 57.0432C36.0326 57.0599 36.0146 57.0736 35.9944 57.0833C35.9743 57.093 35.9524 57.0987 35.9301 57.1L35.9201 57.09ZM35.9201 55.22C35.8794 55.2174 35.8412 55.1995 35.8134 55.1697C35.7855 55.14 35.77 55.1007 35.7701 55.06V54.13C35.7687 54.1077 35.7718 54.0853 35.7791 54.0641C35.7864 54.043 35.7978 54.0235 35.8127 54.0068C35.8276 53.9901 35.8456 53.9764 35.8657 53.9667C35.8859 53.9569 35.9077 53.9513 35.9301 53.95C35.9725 53.95 36.0132 53.9669 36.0432 53.9969C36.0732 54.0269 36.0901 54.0676 36.0901 54.11V55.05C36.0902 55.0934 36.0736 55.1352 36.0439 55.1668C36.0141 55.1984 35.9734 55.2174 35.9301 55.22H35.9201ZM35.9201 53.36C35.8767 53.3574 35.836 53.3384 35.8063 53.3068C35.7765 53.2752 35.76 53.2334 35.7601 53.19V52.26C35.7625 52.2157 35.7812 52.1738 35.8125 52.1424C35.8439 52.1111 35.8858 52.0924 35.9301 52.09C35.9725 52.09 36.0132 52.1069 36.0432 52.1369C36.0732 52.1669 36.0901 52.2076 36.0901 52.25V53.18C36.0904 53.2245 36.0742 53.2675 36.0446 53.3007C36.0151 53.3339 35.9743 53.3551 35.9301 53.36H35.9201ZM35.9201 51.49C35.8995 51.49 35.8791 51.4859 35.8603 51.4777C35.8414 51.4695 35.8244 51.4576 35.8103 51.4426C35.7963 51.4276 35.7854 51.4098 35.7785 51.3905C35.7716 51.3711 35.7687 51.3505 35.7701 51.33V50.4C35.7687 50.3777 35.7718 50.3553 35.7791 50.3341C35.7864 50.313 35.7978 50.2935 35.8127 50.2768C35.8276 50.26 35.8456 50.2464 35.8657 50.2367C35.8859 50.2269 35.9077 50.2213 35.9301 50.22C35.9725 50.22 36.0132 50.2368 36.0432 50.2669C36.0732 50.2969 36.0901 50.3376 36.0901 50.38V51.32C36.0902 51.3634 36.0736 51.4052 36.0439 51.4368C36.0141 51.4684 35.9734 51.4874 35.9301 51.49H35.9201ZM35.9201 49.63C35.8785 49.6251 35.8403 49.605 35.8126 49.5736C35.7849 49.5423 35.7698 49.5018 35.7701 49.46V48.53C35.7698 48.4855 35.786 48.4425 35.8155 48.4093C35.8451 48.3761 35.8859 48.3549 35.9301 48.35C35.9734 48.3525 36.0141 48.3716 36.0439 48.4032C36.0736 48.4348 36.0902 48.4766 36.0901 48.52V49.45C36.0904 49.4945 36.0742 49.5375 36.0446 49.5707C36.0151 49.6039 35.9743 49.625 35.9301 49.63H35.9201ZM35.9201 47.76C35.8794 47.7574 35.8412 47.7395 35.8134 47.7097C35.7855 47.68 35.77 47.6407 35.7701 47.6V46.67C35.7698 46.6255 35.786 46.5825 35.8155 46.5493C35.8451 46.5161 35.8859 46.4949 35.9301 46.49C35.9515 46.4885 35.9729 46.4916 35.993 46.4992C36.0131 46.5067 36.0313 46.5184 36.0465 46.5336C36.0617 46.5487 36.0734 46.567 36.0809 46.5871C36.0884 46.6071 36.0916 46.6286 36.0901 46.65V47.59C36.0902 47.6334 36.0736 47.6752 36.0439 47.7068C36.0141 47.7384 35.9734 47.7574 35.9301 47.76H35.9201ZM35.9201 45.9C35.8991 45.8987 35.8785 45.8933 35.8596 45.8841C35.8406 45.8748 35.8237 45.8619 35.8098 45.8461C35.7958 45.8304 35.7852 45.812 35.7783 45.792C35.7715 45.7721 35.7687 45.751 35.7701 45.73V44.8C35.7698 44.7555 35.786 44.7125 35.8155 44.6793C35.8451 44.6461 35.8859 44.6249 35.9301 44.62C35.9734 44.6225 36.0141 44.6416 36.0439 44.6732C36.0736 44.7048 36.0902 44.7466 36.0901 44.79V45.72C36.0883 45.7639 36.0714 45.8058 36.0422 45.8386C36.0131 45.8714 35.9734 45.8931 35.9301 45.9H35.9201Z" fill="#FAFAFA"/>
<path d="M45.64 55C45.5994 54.9974 45.5612 54.9794 45.5333 54.9497C45.5054 54.92 45.49 54.8807 45.4901 54.8399V53.2799C45.49 53.2365 45.5065 53.1948 45.5363 53.1631C45.566 53.1315 45.6067 53.1125 45.65 53.11C45.75 53.11 45.81 53.1799 45.81 53.2799V54.83C45.8101 54.8734 45.7936 54.9151 45.7638 54.9468C45.7341 54.9784 45.6934 54.9974 45.65 55H45.64ZM45.7 51.9C45.6567 51.8974 45.616 51.8784 45.5863 51.8468C45.5565 51.8152 45.54 51.7734 45.54 51.73V50.18C45.5398 50.1355 45.556 50.0925 45.5855 50.0593C45.6151 50.026 45.6558 50.0049 45.7 50C45.7219 49.9999 45.7436 50.0044 45.7637 50.013C45.7838 50.0217 45.8019 50.0344 45.8169 50.0503C45.8319 50.0662 45.8434 50.0851 45.8509 50.1056C45.8583 50.1262 45.8614 50.1481 45.86 50.1699V51.72C45.8601 51.766 45.8425 51.8103 45.8109 51.8438C45.7793 51.8773 45.736 51.8974 45.69 51.9H45.7ZM45.75 48.79C45.7285 48.7901 45.7073 48.7857 45.6876 48.777C45.668 48.7682 45.6505 48.7553 45.6362 48.7392C45.622 48.7231 45.6114 48.7041 45.6052 48.6835C45.5989 48.6629 45.5972 48.6413 45.6001 48.62V47.07C45.6025 47.0256 45.6211 46.9838 45.6525 46.9524C45.6839 46.921 45.7257 46.9024 45.7701 46.9C45.8601 46.9 45.93 46.97 45.92 47.07V48.62C45.9201 48.6634 45.9036 48.7052 45.8738 48.7368C45.8441 48.7684 45.8034 48.7874 45.76 48.79H45.75ZM45.8 45.69C45.7585 45.685 45.7202 45.665 45.6926 45.6336C45.6649 45.6022 45.6497 45.5618 45.65 45.5199V43.97C45.6487 43.9476 45.6518 43.9252 45.6591 43.9041C45.6664 43.883 45.6778 43.8635 45.6927 43.8467C45.7075 43.83 45.7256 43.8164 45.7457 43.8066C45.7658 43.7969 45.7877 43.7912 45.81 43.79C45.8378 43.7858 45.8661 43.7885 45.8925 43.798C45.9189 43.8074 45.9425 43.8232 45.9613 43.844C45.9802 43.8648 45.9935 43.8899 46.0003 43.9171C46.007 43.9443 46.007 43.9728 46 44V45.55C46.0003 45.5944 45.9841 45.6374 45.9546 45.6707C45.925 45.7039 45.8842 45.725 45.84 45.73L45.8 45.69ZM45.8 42.58C45.779 42.5787 45.7584 42.5733 45.7395 42.564C45.7206 42.5548 45.7037 42.5419 45.6897 42.5261C45.6758 42.5103 45.6651 42.4919 45.6583 42.472C45.6515 42.4521 45.6487 42.431 45.65 42.41V40.86C45.65 40.8165 45.6665 40.7748 45.6963 40.7431C45.726 40.7115 45.7667 40.6925 45.81 40.6899C45.8507 40.6925 45.8889 40.7105 45.9168 40.7402C45.9447 40.7699 45.9601 40.8092 45.9601 40.8499V42.41C45.9601 42.4534 45.9436 42.4951 45.9138 42.5268C45.8841 42.5584 45.8434 42.5774 45.8 42.58V42.58ZM45.86 39.4799C45.839 39.4787 45.8185 39.4733 45.7995 39.464C45.7806 39.4548 45.7637 39.4419 45.7497 39.4261C45.7358 39.4103 45.7251 39.3919 45.7183 39.372C45.7115 39.3521 45.7087 39.331 45.7101 39.31V37.7599C45.71 37.7139 45.7276 37.6696 45.7592 37.6361C45.7908 37.6026 45.8341 37.5825 45.8801 37.58C45.9801 37.58 46.03 37.66 46.03 37.75V39.2999C46.0301 39.346 46.0125 39.3903 45.9809 39.4238C45.9493 39.4573 45.906 39.4774 45.86 39.4799V39.4799ZM46 36.4C45.979 36.3987 45.9585 36.3933 45.9395 36.384C45.9206 36.3748 45.9037 36.3619 45.8897 36.3461C45.8758 36.3303 45.8651 36.3119 45.8583 36.292C45.8515 36.2721 45.8487 36.251 45.8501 36.2299V35.63C45.8487 35.6076 45.8518 35.5852 45.8591 35.5641C45.8664 35.5429 45.8778 35.5235 45.8927 35.5067C45.9075 35.49 45.9256 35.4764 45.9457 35.4666C45.9658 35.4569 45.9877 35.4512 46.01 35.45V35.45C46.0516 35.4549 46.0898 35.4749 46.1175 35.5063C46.1452 35.5377 46.1603 35.5781 46.16 35.6199V36.2299C46.1601 36.2734 46.1436 36.3151 46.1138 36.3468C46.0841 36.3784 46.0434 36.3974 46 36.4V36.4Z" fill="#FAFAFA"/>
<path d="M55.36 49.25C55.3185 49.245 55.2802 49.225 55.2525 49.1936C55.2249 49.1623 55.2097 49.1218 55.21 49.08V47.29C55.21 47.2439 55.2275 47.1996 55.2592 47.1661C55.2908 47.1326 55.334 47.1125 55.38 47.11C55.4225 47.11 55.4632 47.1268 55.4932 47.1568C55.5232 47.1868 55.54 47.2275 55.54 47.27V49.07C55.5403 49.1144 55.5241 49.1574 55.4946 49.1907C55.465 49.2239 55.4242 49.245 55.38 49.25H55.36ZM55.36 45.65C55.3395 45.65 55.3191 45.6458 55.3002 45.6377C55.2813 45.6295 55.2643 45.6176 55.2503 45.6026C55.2362 45.5876 55.2254 45.5698 55.2184 45.5504C55.2115 45.5311 55.2087 45.5105 55.21 45.49V43.69C55.21 43.6466 55.2265 43.6048 55.2562 43.5732C55.286 43.5416 55.3267 43.5225 55.37 43.52C55.4125 43.52 55.4532 43.5368 55.4832 43.5668C55.5132 43.5968 55.53 43.6375 55.53 43.68V45.48C55.5301 45.5234 55.5136 45.5652 55.4838 45.5968C55.4541 45.6284 55.4133 45.6474 55.37 45.65H55.36ZM55.36 42.06C55.3193 42.0574 55.2812 42.0394 55.2533 42.0097C55.2254 41.98 55.2099 41.9407 55.21 41.9V40.1C55.21 40.0566 55.2265 40.0148 55.2562 39.9832C55.286 39.9516 55.3267 39.9325 55.37 39.93C55.4125 39.93 55.4532 39.9468 55.4832 39.9768C55.5132 40.0068 55.53 40.0475 55.53 40.09V41.89C55.5301 41.9334 55.5136 41.9752 55.4838 42.0068C55.4541 42.0384 55.4133 42.0574 55.37 42.06H55.36ZM55.36 38.47C55.3193 38.4674 55.2812 38.4494 55.2533 38.4197C55.2254 38.39 55.2099 38.3507 55.21 38.31V36.51C55.2098 36.4655 55.2259 36.4225 55.2555 36.3893C55.285 36.356 55.3258 36.3349 55.37 36.33C55.3919 36.3299 55.4136 36.3344 55.4336 36.343C55.4537 36.3517 55.4719 36.3644 55.4869 36.3803C55.5019 36.3962 55.5134 36.4151 55.5208 36.4357C55.5283 36.4562 55.5314 36.4781 55.53 36.5V38.29C55.5314 38.3123 55.5283 38.3347 55.521 38.3558C55.5137 38.377 55.5023 38.3965 55.4874 38.4132C55.4725 38.4299 55.4545 38.4435 55.4344 38.4533C55.4142 38.463 55.3924 38.4687 55.37 38.47H55.36ZM55.36 34.88C55.3381 34.88 55.3165 34.8756 55.2964 34.8669C55.2763 34.8583 55.2582 34.8456 55.2432 34.8296C55.2282 34.8137 55.2166 34.7949 55.2092 34.7743C55.2018 34.7537 55.1987 34.7318 55.2 34.71V32.92C55.1997 32.8755 55.2159 32.8325 55.2455 32.7993C55.275 32.766 55.3158 32.7449 55.36 32.74C55.4034 32.7425 55.4441 32.7616 55.4738 32.7932C55.5036 32.8248 55.5201 32.8666 55.52 32.91V34.7C55.5214 34.7223 55.5183 34.7447 55.511 34.7658C55.5037 34.787 55.4923 34.8065 55.4774 34.8232C55.4625 34.8399 55.4445 34.8535 55.4244 34.8633C55.4042 34.873 55.3824 34.8787 55.36 34.88ZM55.36 31.29C55.3185 31.2851 55.2802 31.265 55.2525 31.2336C55.2249 31.2023 55.2097 31.1618 55.21 31.12V29.33C55.2087 29.3076 55.2117 29.2853 55.219 29.2641C55.2264 29.243 55.2378 29.2235 55.2526 29.2068C55.2675 29.19 55.2855 29.1764 55.3057 29.1667C55.3258 29.1569 55.3477 29.1512 55.37 29.15C55.3919 29.1499 55.4136 29.1544 55.4336 29.163C55.4537 29.1717 55.4719 29.1844 55.4869 29.2003C55.5019 29.2162 55.5134 29.2351 55.5208 29.2557C55.5283 29.2762 55.5314 29.2981 55.53 29.32V31.11C55.5303 31.1544 55.5141 31.1974 55.4846 31.2307C55.455 31.2639 55.4142 31.285 55.37 31.29H55.36ZM55.36 27.7C55.3167 27.6974 55.276 27.6784 55.2462 27.6468C55.2165 27.6152 55.1999 27.5734 55.2 27.53V25.74C55.1987 25.7176 55.2017 25.6953 55.2091 25.6741C55.2164 25.653 55.2278 25.6335 55.2427 25.6168C55.2575 25.6 55.2755 25.5864 55.2957 25.5767C55.3158 25.5669 55.3377 25.5612 55.36 25.56C55.4025 25.56 55.4432 25.5768 55.4732 25.6068C55.5032 25.6368 55.52 25.6775 55.52 25.72V27.52C55.5183 27.5638 55.5014 27.6057 55.4722 27.6386C55.443 27.6714 55.4034 27.6931 55.36 27.7V27.7ZM55.36 24.1C55.3193 24.0974 55.2812 24.0794 55.2533 24.0497C55.2254 24.02 55.2099 23.9807 55.21 23.94V22.14C55.21 22.0966 55.2265 22.0548 55.2562 22.0232C55.286 21.9916 55.3267 21.9725 55.37 21.97C55.4125 21.97 55.4532 21.9868 55.4832 22.0168C55.5132 22.0468 55.53 22.0875 55.53 22.13V23.93C55.5301 23.9734 55.5136 24.0152 55.4838 24.0468C55.4541 24.0784 55.4133 24.0974 55.37 24.1H55.36Z" fill="#FAFAFA"/>
<path d="M12.32 68.5199C12.246 68.5188 12.1735 68.4981 12.11 68.4599C12.022 68.3923 11.9628 68.2939 11.9443 68.1845C11.9258 68.0751 11.9492 67.9627 12.01 67.8699L16.18 61.2099C16.2131 61.1573 16.2569 61.1122 16.3086 61.0778C16.3603 61.0433 16.4187 61.0202 16.48 61.0099L21.64 60.3499L26 54.4699C26.067 54.3897 26.1583 54.3335 26.26 54.3099L31.02 53.3699L35.66 44.1299C35.6839 44.0713 35.722 44.0195 35.7709 43.9794C35.8197 43.9392 35.8779 43.9119 35.94 43.8999C35.9998 43.8864 36.0619 43.8875 36.1211 43.9032C36.1803 43.9189 36.2348 43.9486 36.28 43.9899L40.73 48.2499L45.66 35.4699C45.6827 35.4119 45.7177 35.3595 45.7626 35.3163C45.8075 35.2732 45.8612 35.2403 45.92 35.2199C45.9734 35.1956 46.0314 35.183 46.09 35.183C46.1487 35.183 46.2067 35.1956 46.26 35.2199L50.61 38.2199L55 21.8899C55.0108 21.8361 55.0325 21.7852 55.0638 21.7401C55.0951 21.6951 55.1354 21.657 55.182 21.6282C55.2287 21.5994 55.2807 21.5804 55.335 21.5726C55.3893 21.5648 55.4446 21.5681 55.4975 21.5826C55.5504 21.597 55.5998 21.6222 55.6425 21.6565C55.6853 21.6908 55.7206 21.7335 55.7461 21.782C55.7717 21.8306 55.787 21.8838 55.7911 21.9385C55.7952 21.9932 55.7881 22.0481 55.77 22.0999L51.14 39.0999C51.1251 39.1649 51.0945 39.2253 51.051 39.2759C51.0074 39.3264 50.9522 39.3656 50.89 39.3899C50.8347 39.4197 50.7729 39.4352 50.71 39.4352C50.6472 39.4352 50.5854 39.4197 50.53 39.3899L46.13 36.3299L41.13 49.1899C41.1063 49.2534 41.0675 49.3103 41.017 49.3556C40.9665 49.4008 40.9058 49.4332 40.84 49.4499C40.7774 49.4679 40.7112 49.4691 40.6479 49.4533C40.5847 49.4375 40.5268 49.4053 40.48 49.3599L36.06 44.9999L31.58 53.9399C31.5525 53.9978 31.512 54.0487 31.4617 54.0886C31.4115 54.1284 31.3527 54.1563 31.29 54.1699L26.48 55.1699L22.16 60.9999C22.129 61.0473 22.0877 61.0872 22.0393 61.1166C21.9909 61.146 21.9364 61.1642 21.88 61.1699L16.73 61.8299L12.67 68.3199C12.6363 68.3827 12.5856 68.4348 12.5238 68.4701C12.4619 68.5055 12.3913 68.5227 12.32 68.5199V68.5199Z" fill="#0082F4"/>
<path d="M56.5001 26.9999C56.4106 26.9986 56.3244 26.9659 56.2567 26.9073C56.189 26.8488 56.1442 26.7682 56.1301 26.6799L55.2701 22.3099L52.2001 25.5999C52.1645 25.6387 52.1212 25.6697 52.073 25.6908C52.0248 25.712 51.9727 25.723 51.9201 25.723C51.8674 25.723 51.8153 25.712 51.7671 25.6908C51.7189 25.6697 51.6757 25.6387 51.6401 25.5999C51.5635 25.5168 51.5209 25.4079 51.5209 25.2949C51.5209 25.1819 51.5635 25.073 51.6401 24.9899L55.2301 21.1499C55.2785 21.094 55.3418 21.0531 55.4126 21.0318C55.4835 21.0106 55.5589 21.0099 55.6301 21.0299C55.7008 21.0507 55.7643 21.0907 55.8137 21.1454C55.8631 21.2001 55.8965 21.2674 55.9101 21.3399L56.9101 26.4499C56.9348 26.5598 56.9164 26.6749 56.8587 26.7717C56.801 26.8684 56.7085 26.9393 56.6001 26.9699L56.5001 26.9999Z" fill="#0082F4"/>
<path d="M12.4 74.9C12.369 74.9011 12.3383 74.8933 12.3117 74.8773C12.285 74.8613 12.2636 74.8379 12.25 74.81C12.2304 74.7642 12.2276 74.7129 12.2423 74.6653C12.2569 74.6176 12.288 74.5768 12.33 74.55L59.79 46.23C59.8102 46.2178 59.8326 46.21 59.8559 46.207C59.8792 46.204 59.9028 46.2058 59.9254 46.2124C59.9479 46.2189 59.9689 46.2301 59.9869 46.2452C60.0049 46.2603 60.0196 46.2789 60.03 46.3C60.0528 46.3442 60.0583 46.3954 60.0453 46.4435C60.0324 46.4916 60.002 46.5331 59.96 46.56L12.49 74.88L12.4 74.9Z" fill="#0082F4"/>
</svg>
