<svg width="65" height="89" viewBox="0 0 65 89" fill="none" xmlns="http://www.w3.org/2000/svg">
<path d="M28.8501 81.3001L34.5101 78.0001C34.6231 77.9544 34.7155 77.8691 34.7701 77.7601L35.8201 76.0001L33.0001 74.3201L29.0001 81.1201C28.9668 81.1923 28.9151 81.2544 28.8501 81.3001V81.3001Z" fill="#E0E0E0"/>
<path d="M64.3701 82.42C64.3226 83.3734 64.0483 84.3017 63.57 85.1279C63.0917 85.954 62.4232 86.6541 61.6201 87.17L61.2001 87.42C60.4297 87.8079 59.5862 88.0289 58.7246 88.0686C57.863 88.1082 57.0028 87.9656 56.2001 87.65C57.4901 88.14 58.4701 87.4 58.4701 85.84V40.12C58.4408 39.1629 58.1652 38.2296 57.6701 37.41L63.5701 34C64.0595 34.8184 64.3347 35.747 64.3701 36.7V82.42Z" fill="#E0E0E0"/>
<path d="M0.28006 5.67998C0.59006 4.51998 1.65005 4.13998 2.93005 4.87998L55.7201 35.36C56.5218 35.85 57.1832 36.539 57.6401 37.36C58.1367 38.1795 58.4155 39.1124 58.4501 40.07V85.83C58.4501 87.37 57.5201 88.1 56.2801 87.68C56.2473 87.6889 56.2128 87.6889 56.1801 87.68C56.0136 87.6177 55.8529 87.5407 55.7001 87.45L33.0001 74.32L29.0001 81.11C28.9399 81.1924 28.859 81.2575 28.7656 81.2987C28.6722 81.3398 28.5696 81.3556 28.4682 81.3445C28.3668 81.3333 28.2701 81.2956 28.1879 81.2351C28.1057 81.1746 28.0409 81.0935 28.0001 81L23.8501 69L2.68005 56.75C0.210054 55.35 0.190063 53.94 0.190063 52.18V6.45998C0.191455 6.19747 0.221632 5.93591 0.28006 5.67998Z" fill="#FAFAFA"/>
<path d="M1.70007 5.3C1.99519 5.31803 2.28083 5.41095 2.53006 5.57L55.3101 36.05C56.0216 36.4738 56.6054 37.0819 57.0001 37.81C57.4268 38.5076 57.6678 39.3029 57.7001 40.12V85.83C57.7001 86.27 57.6101 87 56.9901 87C56.8505 86.9987 56.7121 86.975 56.58 86.93H56.4901L56.1501 86.76L33.36 73.62L32.6601 73.22L32.2601 73.92L28.5701 80.31L24.5701 68.77L24.4701 68.49L24.2101 68.34L3.07007 56.05C1.00007 54.88 1.00006 53.86 1.00006 52.18V6.46C1.00299 6.26805 1.02646 6.07696 1.07007 5.89C1.22007 5.3 1.57005 5.3 1.71005 5.3H1.70007ZM1.71005 4.5C1.37261 4.49915 1.0456 4.61682 0.786072 4.83248C0.526542 5.04815 0.350995 5.34811 0.29007 5.68C0.231642 5.93593 0.201465 6.1975 0.200073 6.46V52.18C0.200073 53.94 0.200063 55.35 2.69006 56.75L23.8201 69L28.0001 81C28.0385 81.1177 28.1136 81.2201 28.2143 81.292C28.3151 81.364 28.4362 81.4018 28.5601 81.4C28.6627 81.3996 28.7633 81.3716 28.8513 81.3188C28.9393 81.266 29.0114 81.1904 29.0601 81.1L33.0001 74.32L55.7401 87.42C55.8929 87.5107 56.0536 87.5877 56.2201 87.65C56.2528 87.6589 56.2873 87.6589 56.3201 87.65C56.5317 87.7269 56.7549 87.7674 56.9801 87.77C57.8801 87.77 58.4901 87.05 58.4901 85.77V40.12C58.4555 39.1624 58.1767 38.2295 57.6801 37.41C57.2232 36.589 56.5618 35.9 55.7601 35.41L2.93005 4.88C2.56065 4.64728 2.13637 4.51619 1.70007 4.5H1.71005Z" fill="#E0E0E0"/>
<path d="M0.28006 5.68002C0.60006 4.52002 1.66005 4.15002 2.93005 4.88002L55.7101 35.37C56.5202 35.8527 57.1865 36.5432 57.6401 37.37L63.5601 34C63.0933 33.1798 62.4257 32.4916 61.6201 32L8.85007 1.46002C7.99863 1.03098 7.05849 0.807495 6.10507 0.807495C5.15165 0.807495 4.21148 1.03098 3.36005 1.46002L2.93005 1.71002C2.24259 2.15789 1.65324 2.7407 1.19772 3.42312C0.742204 4.10554 0.43001 4.87336 0.28006 5.68002V5.68002Z" fill="#F5F5F5"/>
<path d="M33.8901 42.19C35.4201 43.08 36.6601 42.36 36.6601 40.6C36.6078 39.6386 36.3297 38.7031 35.8485 37.8691C35.3672 37.0352 34.6963 36.3264 33.8901 35.8C32.3601 34.92 31.1201 35.64 31.1201 37.4C31.1715 38.3603 31.4493 39.2947 31.9307 40.1272C32.4121 40.9596 33.0835 41.6665 33.8901 42.19V42.19ZM50.3201 38.08L8.89009 14.16C8.56648 13.8986 8.17127 13.7412 7.75651 13.7087C7.34176 13.6762 6.92689 13.77 6.56648 13.9778C6.20607 14.1856 5.91702 14.4977 5.73738 14.8729C5.55774 15.2481 5.49592 15.669 5.56007 16.08V47.87C5.6055 48.8278 5.87982 49.7607 6.36003 50.5907C6.84024 51.4206 7.51236 52.1234 8.32008 52.64L49.7501 76.56C50.168 76.8207 50.6477 76.9657 51.1401 76.9801C51.4657 76.9824 51.7863 76.8997 52.0701 76.74C52.4091 76.5112 52.6807 76.1958 52.8565 75.8265C53.0324 75.4572 53.1061 75.0475 53.0701 74.64V42.85C53.0257 41.8932 52.7529 40.9608 52.2745 40.131C51.7961 39.3011 51.1259 38.5979 50.3201 38.08V38.08ZM51.9401 74.64C51.9661 74.8471 51.9394 75.0575 51.8625 75.2515C51.7856 75.4455 51.6609 75.617 51.5001 75.75C51.3044 75.8236 51.0932 75.8457 50.8865 75.8142C50.6799 75.7827 50.4849 75.6986 50.3201 75.57L8.89009 51.6501C8.25939 51.2312 7.73433 50.6719 7.35609 50.0161C6.97785 49.3603 6.75671 48.6257 6.71006 47.87V16.08C6.68471 15.8739 6.7107 15.6647 6.78572 15.4711C6.86074 15.2774 6.98249 15.1053 7.14009 14.97C7.25095 14.9121 7.37512 14.8845 7.50007 14.89C7.79184 14.9012 8.07517 14.9911 8.32008 15.15L49.7501 39.07C50.3821 39.4883 50.9087 40.0473 51.2886 40.7031C51.6686 41.3589 51.8915 42.0937 51.9401 42.85V74.64ZM34.3501 51.8601L35.4601 57.1101L18.0001 27.92L9.00007 37.86V47.1C9.01725 47.4008 9.10495 47.6933 9.25608 47.9539C9.40722 48.2144 9.61755 48.4358 9.87007 48.6L48.7601 71.0501C49.2301 71.3301 49.6201 71.0501 49.6201 70.5501V64.32L40.7101 45.75L34.3501 51.8601Z" fill="#0082F4"/>
<path opacity="0.3" d="M33.8901 42.19C35.4201 43.08 36.6601 42.36 36.6601 40.6C36.6078 39.6386 36.3297 38.7031 35.8485 37.8691C35.3672 37.0352 34.6963 36.3264 33.8901 35.8C32.3601 34.92 31.1201 35.64 31.1201 37.4C31.1715 38.3603 31.4493 39.2947 31.9307 40.1272C32.4121 40.9596 33.0835 41.6665 33.8901 42.19V42.19ZM50.3201 38.08L8.89009 14.16C8.56648 13.8986 8.17127 13.7412 7.75651 13.7087C7.34176 13.6762 6.92689 13.77 6.56648 13.9778C6.20607 14.1856 5.91702 14.4977 5.73738 14.8729C5.55774 15.2481 5.49592 15.669 5.56007 16.08V47.87C5.6055 48.8278 5.87982 49.7607 6.36003 50.5907C6.84024 51.4206 7.51236 52.1234 8.32008 52.64L49.7501 76.56C50.168 76.8207 50.6477 76.9657 51.1401 76.9801C51.4657 76.9824 51.7863 76.8997 52.0701 76.74C52.4091 76.5112 52.6807 76.1958 52.8565 75.8265C53.0324 75.4572 53.1061 75.0475 53.0701 74.64V42.85C53.0257 41.8932 52.7529 40.9608 52.2745 40.131C51.7961 39.3011 51.1259 38.5979 50.3201 38.08V38.08ZM51.9401 74.64C51.9661 74.8471 51.9394 75.0575 51.8625 75.2515C51.7856 75.4455 51.6609 75.617 51.5001 75.75C51.3044 75.8236 51.0932 75.8457 50.8865 75.8142C50.6799 75.7827 50.4849 75.6986 50.3201 75.57L8.89009 51.6501C8.25939 51.2312 7.73433 50.6719 7.35609 50.0161C6.97785 49.3603 6.75671 48.6257 6.71006 47.87V16.08C6.68471 15.8739 6.7107 15.6647 6.78572 15.4711C6.86074 15.2774 6.98249 15.1053 7.14009 14.97C7.25095 14.9121 7.37512 14.8845 7.50007 14.89C7.79184 14.9012 8.07517 14.9911 8.32008 15.15L49.7501 39.07C50.3821 39.4883 50.9087 40.0473 51.2886 40.7031C51.6686 41.3589 51.8915 42.0937 51.9401 42.85V74.64ZM34.3501 51.8601L35.4601 57.1101L18.0001 27.92L9.00007 37.86V47.1C9.01725 47.4008 9.10495 47.6933 9.25608 47.9539C9.40722 48.2144 9.61755 48.4358 9.87007 48.6L48.7601 71.0501C49.2301 71.3301 49.6201 71.0501 49.6201 70.5501V64.32L40.7101 45.75L34.3501 51.8601Z" fill="white"/>
</svg>
